<svg width="0" height="0" class="hidden">
  <symbol fill="none" xmlns="http://www.w3.org/2000/svg" viewBox="0 0 100 100" id="code-0-colorful">
    <g clip-path="url(#clip0_0_230)">
      <rect opacity="0.0229128" x="0.5" y="0.5" width="99" height="99" stroke="#2B2B2B"></rect>
      <path fill-rule="evenodd" clip-rule="evenodd" d="M50.5777 35.0602C59.2094 35.0669 66.2006 42.0674 66.194 50.6968C66.1873 59.3262 59.1849 66.3156 50.5532 66.3089C41.9215 66.3022 34.9303 59.3017 34.937 50.6723C34.9436 42.0429 41.946 35.0535 50.5777 35.0602Z" fill="#F9C900"></path>
      <path fill-rule="evenodd" clip-rule="evenodd" d="M46.851 71.5247C46.851 71.7117 46.8265 71.903 46.7754 72.0922L44.1823 81.7385C43.8684 82.9067 42.6665 83.601 41.498 83.2872C40.3294 82.9735 39.635 81.7719 39.951 80.6014L42.5441 70.9551C42.8579 69.7868 44.0599 69.0948 45.2284 69.4086C46.2078 69.6711 46.851 70.5568 46.851 71.5247Z" fill="#F9C900"></path>
      <path fill-rule="evenodd" clip-rule="evenodd" d="M35.9944 67.5643C35.9944 68.154 35.7563 68.7437 35.2888 69.1754L27.9415 75.9423C27.0511 76.7634 25.6645 76.7055 24.8454 75.8154C24.024 74.9276 24.0797 73.5413 24.97 72.7201L32.3174 65.951C33.2077 65.1322 34.5944 65.19 35.4135 66.0779C35.803 66.5007 35.9944 67.0325 35.9944 67.5643Z" fill="#F9C900"></path>
      <path fill-rule="evenodd" clip-rule="evenodd" d="M30.0564 56.9285C30.0564 57.9031 29.3998 58.791 28.4138 59.0469L18.7404 61.5458C17.5674 61.8484 16.3722 61.1452 16.0695 59.9726C15.7668 58.8021 16.4701 57.6071 17.6431 57.3045L27.3165 54.8034C28.4872 54.5007 29.6825 55.2061 29.9852 56.3766C30.0342 56.5613 30.0564 56.746 30.0564 56.9285Z" fill="#F9C900"></path>
      <path fill-rule="evenodd" clip-rule="evenodd" d="M30.364 44.656C30.364 44.8362 30.3417 45.0187 30.295 45.2011C29.9923 46.3738 28.797 47.0792 27.6262 46.7766L17.9507 44.2866C16.7777 43.9862 16.0721 42.7912 16.3748 41.6208C16.6753 40.4481 17.8705 39.7427 19.0435 40.0453L28.7191 42.5353C29.7074 42.789 30.364 43.6791 30.364 44.656Z" fill="#F9C900"></path>
      <path fill-rule="evenodd" clip-rule="evenodd" d="M35.9404 33.9891C35.9404 34.5365 35.7356 35.0861 35.3238 35.5112C34.4825 36.379 33.0936 36.4035 32.2255 35.5601L25.0473 28.613C24.1792 27.7719 24.1547 26.3833 24.9983 25.5155C25.8396 24.6454 27.2263 24.6232 28.0966 25.4643L35.2726 32.4137C35.7178 32.8431 35.9404 33.415 35.9404 33.9891Z" fill="#F9C900"></path>
      <path fill-rule="evenodd" clip-rule="evenodd" d="M46.1198 27.8985C46.1198 28.8776 45.4565 29.7699 44.4638 30.0191C43.2908 30.3151 42.1 29.603 41.804 28.4303L39.3623 18.744C39.0662 17.5691 39.7785 16.3808 40.9515 16.0848C42.1245 15.7889 43.3153 16.501 43.6113 17.6736L46.053 27.36C46.0975 27.5402 46.1198 27.7205 46.1198 27.8985Z" fill="#F9C900"></path>
      <path fill-rule="evenodd" clip-rule="evenodd" d="M60.789 18.9262C60.789 19.1109 60.7645 19.2978 60.7155 19.4825L58.1759 29.1444C57.8687 30.3126 56.6713 31.0136 55.5005 30.7043C54.3297 30.3972 53.6308 29.1978 53.938 28.0296L56.4776 18.3699C56.7848 17.1995 57.9845 16.5007 59.1553 16.8078C60.1391 17.0659 60.789 17.9538 60.789 18.9262Z" fill="#F9C900"></path>
      <path fill-rule="evenodd" clip-rule="evenodd" d="M76.6779 27.267C76.6779 27.8789 76.422 28.4864 75.9256 28.9181L68.3868 35.4758C67.4742 36.268 66.0898 36.1723 65.2952 35.26C64.5006 34.3476 64.5963 32.9635 65.5111 32.1691L73.0477 25.6137C73.9625 24.8193 75.3447 24.9149 76.1393 25.8273C76.5021 26.2434 76.6779 26.7574 76.6779 27.267Z" fill="#F9C900"></path>
      <path fill-rule="evenodd" clip-rule="evenodd" d="M84.4471 41.8865C84.4471 42.8478 83.8083 43.7289 82.8357 43.996L73.2001 46.6395C72.0338 46.9599 70.8274 46.2724 70.5069 45.1063C70.1864 43.9381 70.8742 42.7343 72.0405 42.4138L81.676 39.7703C82.8423 39.4521 84.0487 40.1374 84.3692 41.3035C84.4227 41.4993 84.4471 41.6951 84.4471 41.8865Z" fill="#F9C900"></path>
      <path fill-rule="evenodd" clip-rule="evenodd" d="M84.2815 58.9652C84.2815 59.1454 84.2593 59.3279 84.2125 59.5103C83.9098 60.683 82.7146 61.3884 81.5438 61.0858L71.8682 58.5958C70.6952 58.2954 69.9896 57.1004 70.2923 55.93C70.5928 54.7573 71.7881 54.0519 72.9611 54.3545L82.6367 56.8445C83.6249 57.0982 84.2815 57.9883 84.2815 58.9652Z" fill="#F9C900"></path>
      <path fill-rule="evenodd" clip-rule="evenodd" d="M76.099 74.0063C76.099 74.5737 75.8786 75.1434 75.4401 75.5706C74.5743 76.4162 73.1876 76.4006 72.3418 75.535L65.3572 68.3943C64.5114 67.5287 64.5248 66.1424 65.3906 65.2968C66.2565 64.4512 67.6431 64.4668 68.4889 65.3302L75.4735 72.4731C75.892 72.9004 76.099 73.4522 76.099 74.0063Z" fill="#F9C900"></path>
      <path fill-rule="evenodd" clip-rule="evenodd" d="M61.0141 82.0847C61.0141 83.0504 60.3686 83.9338 59.3914 84.1964C58.2229 84.5124 57.021 83.8204 56.7071 82.6521L54.1074 73.008C53.7913 71.8398 54.4835 70.636 55.6521 70.3222C56.8206 70.0062 58.0226 70.6983 58.3386 71.8665L60.9384 81.5128C60.9896 81.7042 61.0141 81.8955 61.0141 82.0847Z" fill="#F9C900"></path>
    </g>
    <defs>
      <clipPath id="clip0_0_230">
        <rect width="100" height="100" fill="white"></rect>
      </clipPath>
    </defs>
  </symbol>
  <symbol fill="none" xmlns="http://www.w3.org/2000/svg" viewBox="0 0 100 100" id="code-1">
    <g clip-path="url(#clip0_0_1023)">
      <g clip-path="url(#clip1_0_1023)">
        <rect opacity="0.0229128" x="0.5" y="0.5" width="99" height="99" stroke="#2B2B2B"></rect>
        <path fill-rule="evenodd" clip-rule="evenodd" d="M82.7017 54.7437C81.6796 54.7437 80.6592 54.8528 79.6617 55.0693C76.471 47.6591 69.0282 42.7151 60.9745 42.7151C50.9242 42.7151 42.5674 49.8177 40.9033 59.6812C40.8804 59.6812 40.8574 59.6812 40.8329 59.6812C34.2615 59.6812 28.9153 65.0451 28.9153 71.6398C28.9153 78.2312 34.2615 83.5935 40.8329 83.5935H82.7017C90.6276 83.5935 97.0761 77.1226 97.0761 69.1686C97.0761 61.2147 90.6276 54.7437 82.7017 54.7437ZM94.1852 69.1686C94.1852 75.5288 89.0339 80.704 82.7017 80.704H40.8329C35.8552 80.704 31.8062 76.6374 31.8062 71.6398C31.8062 66.6388 35.8552 62.5707 40.8329 62.5707C41.1654 62.5707 41.529 62.5967 41.9761 62.6521L43.4454 62.8344L43.5928 61.3628C44.4986 52.38 51.9724 45.6063 60.9745 45.6063C68.3386 45.6063 74.9493 50.2963 77.4243 57.28L77.8911 58.5986L79.2227 58.1737C80.3545 57.8156 81.524 57.6349 82.7017 57.6349C89.0339 57.6349 94.1852 62.8084 94.1852 69.1686Z" fill="currentColor"></path>
        <path fill-rule="evenodd" clip-rule="evenodd" d="M23.7559 36.2816C24.3275 36.9198 25.3201 36.9784 25.9621 36.4119C26.6059 35.8437 26.6648 34.8572 26.0932 34.2191L16.9093 23.9388C16.3393 23.3007 15.3467 23.2421 14.703 23.8102C14.0609 24.3767 14.002 25.3633 14.572 26.003L23.7559 36.2816Z" fill="currentColor"></path>
        <path fill-rule="evenodd" clip-rule="evenodd" d="M22.6584 61.7046L12.5327 71.0684C11.9037 71.6512 11.8677 72.6377 12.4524 73.2644C13.0388 73.8895 14.033 73.9253 14.662 73.3426L24.7877 63.9788C25.4167 63.3977 25.4527 62.4095 24.8679 61.7844C24.2816 61.1593 23.2873 61.1235 22.6584 61.7046Z" fill="currentColor"></path>
        <path fill-rule="evenodd" clip-rule="evenodd" d="M63.3201 25.9949C62.7337 25.3698 61.7395 25.3339 61.1105 25.9151L50.9848 35.2788C50.3559 35.8616 50.3198 36.8481 50.9062 37.4749C51.491 38.1 52.4852 38.1358 53.1142 37.553L63.2398 28.1893C63.8688 27.6081 63.9048 26.62 63.3201 25.9949Z" fill="currentColor"></path>
        <path fill-rule="evenodd" clip-rule="evenodd" d="M39.3883 32.0507C40.2449 32.1174 41 31.4744 41.0672 30.623L42.1466 16.9193C42.2137 16.0679 41.5667 15.3158 40.7101 15.2491C39.8535 15.1823 39.0967 15.8253 39.0296 16.6767L37.9518 30.3805C37.8847 31.2335 38.53 31.984 39.3883 32.0507Z" fill="currentColor"></path>
        <path fill-rule="evenodd" clip-rule="evenodd" d="M20.2866 48.1963C20.3652 47.3465 19.7297 46.5863 18.8747 46.5065L5.10301 45.2335C4.24637 45.1554 3.48146 45.7854 3.40284 46.6368C3.32258 47.4881 3.95809 48.2484 4.81309 48.3265L18.5848 49.5995C19.4415 49.6793 20.2064 49.0477 20.2866 48.1963Z" fill="currentColor"></path>
        <path fill-rule="evenodd" clip-rule="evenodd" d="M26.2112 48.696C26.7795 42.4026 32.3927 37.7419 38.725 38.3067C41.9238 38.5932 44.7001 40.1593 46.5936 42.4498C47.2832 41.7758 48.035 41.1344 48.8507 40.5451C46.4707 37.6865 42.9918 35.733 38.9887 35.3765C31.0316 34.6667 23.977 40.5239 23.2629 48.4323C22.801 53.5439 25.1072 58.2681 28.9383 61.1707C29.3707 60.4316 29.9538 59.6242 30.7286 58.833C27.6804 56.523 25.8443 52.7626 26.2112 48.696Z" fill="currentColor"></path>
      </g>
    </g>
    <defs>
      <clipPath id="clip0_0_1023">
        <rect width="100" height="100" fill="currentColor"></rect>
      </clipPath>
      <clipPath id="clip1_0_1023">
        <rect width="100" height="100" fill="currentColor"></rect>
      </clipPath>
    </defs>
  </symbol>
  <symbol fill="none" xmlns="http://www.w3.org/2000/svg" viewBox="0 0 100 100" id="code-1-colorful">
    <g clip-path="url(#clip0_0_306)">
      <rect opacity="0.0229128" x="0.5" y="0.5" width="98.0099" height="99" stroke="#2B2B2B"></rect>
      <g clip-path="url(#clip1_0_306)">
        <path fill-rule="evenodd" clip-rule="evenodd" d="M33.4941 34.3313C41.8558 34.3376 48.6281 41.077 48.6217 49.3849C48.6154 57.6928 41.8324 64.4216 33.4707 64.4152C25.109 64.4089 18.3366 57.6695 18.343 49.3616C18.3494 41.0537 25.1324 34.325 33.4941 34.3313Z" fill="#F9C900"></path>
        <path fill-rule="evenodd" clip-rule="evenodd" d="M29.8843 69.4353C29.8843 69.6171 29.8609 69.7989 29.8119 69.9828L27.2992 79.2695C26.9949 80.3941 25.8311 81.06 24.6992 80.7577C23.5651 80.4554 22.8949 79.2991 23.1992 78.1744L25.7119 68.8878C26.0162 67.7631 27.18 67.0972 28.3119 67.3974C29.2609 67.6511 29.8843 68.5051 29.8843 69.4353Z" fill="#F9C900"></path>
        <path fill-rule="evenodd" clip-rule="evenodd" d="M19.3677 65.6227C19.3677 66.1914 19.1379 66.7579 18.6826 67.1722L11.5655 73.6896C10.7038 74.4781 9.36129 74.4232 8.56767 73.567C7.77193 72.7108 7.82725 71.3769 8.68895 70.5863L15.806 64.0711C16.6698 63.2825 18.0124 63.3354 18.806 64.1937C19.1826 64.5974 19.3677 65.1111 19.3677 65.6227Z" fill="#F9C900"></path>
        <mask id="mask0_0_306" maskUnits="userSpaceOnUse" x="0" y="53" width="14" height="7">
          <path fill-rule="evenodd" clip-rule="evenodd" d="M0 53.2717V59.8971H13.616V53.2717L0 53.2717L0 53.2717Z" fill="white"></path>
        </mask>
        <g mask="url(#mask0_0_306)">
          <path fill-rule="evenodd" clip-rule="evenodd" d="M13.616 55.3837C13.616 56.3223 12.9798 57.1764 12.0245 57.4216L2.65426 59.8294C1.52022 60.1212 0.360642 59.4426 0.0670254 58.3158C-0.224464 57.1891 0.456387 56.037 1.59256 55.7452L10.9628 53.3395C12.0968 53.0478 13.2543 53.7243 13.5479 54.8531C13.5947 55.0307 13.616 55.2083 13.616 55.3837Z" fill="#F9C900"></path>
        </g>
        <path fill-rule="evenodd" clip-rule="evenodd" d="M13.9139 43.5692C13.9139 43.7425 13.8926 43.918 13.8458 44.0955C13.5543 45.2223 12.3968 45.9009 11.2628 45.6112L1.88832 43.214C0.754282 42.9244 0.071303 41.7723 0.362792 40.6455C0.654282 39.5188 1.81173 38.8402 2.9479 39.1298L12.3202 41.5271C13.2777 41.7723 13.9139 42.6284 13.9139 43.5692Z" fill="#F9C900"></path>
        <path fill-rule="evenodd" clip-rule="evenodd" d="M19.3153 33.3003C19.3153 33.8288 19.1174 34.3573 18.7174 34.7653C17.9025 35.6024 16.5578 35.6236 15.7153 34.8139L8.76421 28.1232C7.92166 27.3135 7.90038 25.9796 8.71527 25.1425C9.53017 24.3054 10.8748 24.2842 11.7174 25.0939L18.6685 31.7825C19.1004 32.1968 19.3153 32.7486 19.3153 33.3003Z" fill="#F9C900"></path>
        <path fill-rule="evenodd" clip-rule="evenodd" d="M29.1759 27.4368C29.1759 28.3796 28.5334 29.2379 27.5717 29.4789C26.4355 29.7642 25.2802 29.0793 24.9951 27.9483L22.6291 18.6236C22.344 17.4926 23.0334 16.349 24.1696 16.0636C25.3057 15.7803 26.4611 16.4653 26.7462 17.5941L29.1121 26.9188C29.1547 27.0922 29.1759 27.2655 29.1759 27.4368Z" fill="#F9C900"></path>
        <path fill-rule="evenodd" clip-rule="evenodd" d="M43.3854 18.7993C43.3854 18.9769 43.362 19.1566 43.3152 19.3363L40.8556 28.6357C40.5577 29.7624 39.396 30.4346 38.262 30.1387C37.13 29.8427 36.4513 28.6885 36.7492 27.5639L39.2088 18.2624C39.5066 17.1378 40.6683 16.4634 41.8024 16.7594C42.7556 17.0088 43.3854 17.8629 43.3854 18.7993Z" fill="#F9C900"></path>
        <path fill-rule="evenodd" clip-rule="evenodd" d="M58.7764 26.829C58.7764 27.4167 58.5296 28.0023 58.0466 28.4188L50.7445 34.7311C49.8615 35.4942 48.519 35.4012 47.7509 34.5239C46.9807 33.6445 47.0743 32.3127 47.9594 31.5474L55.2615 25.2372C56.1445 24.472 57.4849 24.565 58.2552 25.4444C58.6062 25.8439 58.7764 26.3386 58.7764 26.829Z" fill="#F9C900"></path>
        <path fill-rule="evenodd" clip-rule="evenodd" d="M66.302 40.903C66.302 41.8289 65.6828 42.6766 64.7403 42.9345L55.4084 45.4776C54.2764 45.7863 53.1084 45.1267 52.7998 44.0021C52.4892 42.8774 53.153 41.719 54.285 41.4103L63.6169 38.8672C64.7488 38.5586 65.9147 39.2181 66.2254 40.3428C66.2764 40.5288 66.302 40.7169 66.302 40.903Z" fill="#F9C900"></path>
        <path fill-rule="evenodd" clip-rule="evenodd" d="M66.1415 57.3442C66.1415 57.5175 66.1202 57.693 66.0734 57.8706C65.7819 58.9973 64.6245 59.6759 63.4904 59.3863L54.116 56.989C52.9819 56.6994 52.2968 55.5494 52.5904 54.4206C52.8819 53.2938 54.0394 52.6152 55.1755 52.9048L64.5479 55.3021C65.5053 55.5473 66.1415 56.4035 66.1415 57.3442Z" fill="#F9C900"></path>
        <path fill-rule="evenodd" clip-rule="evenodd" d="M58.2155 71.8243C58.2155 72.3718 58.0027 72.9172 57.5772 73.3294C56.7389 74.1454 55.3942 74.1306 54.5751 73.2977L47.8091 66.4209C46.99 65.588 47.0049 64.2541 47.8432 63.4403C48.6815 62.6243 50.0261 62.6391 50.8453 63.472L57.6113 70.3487C58.0155 70.7588 58.2155 71.2915 58.2155 71.8243Z" fill="#F9C900"></path>
        <path fill-rule="evenodd" clip-rule="evenodd" d="M43.6032 79.6011C43.6032 80.5313 42.9798 81.3811 42.033 81.6348C40.9011 81.9371 39.7351 81.2712 39.4309 80.1465L36.9117 70.862C36.6075 69.7373 37.2777 68.581 38.4096 68.2766C39.5415 67.9743 40.7075 68.6402 41.0117 69.7648L43.5287 79.0494C43.5798 79.2333 43.6032 79.4193 43.6032 79.6011Z" fill="#F9C900"></path>
        <path fill-rule="evenodd" clip-rule="evenodd" d="M18.1162 69.9191C18.1162 76.7092 23.6247 82.2373 30.3928 82.2373H83.7694C92.2673 82.2373 99.1779 75.2992 99.1779 66.7714C99.1779 58.2437 92.2673 51.3056 83.7694 51.3056C82.1886 51.3056 80.6162 51.5509 79.1013 52.0307L78.1141 52.3457L77.7651 51.3648C74.5034 42.1606 65.7843 35.9772 56.0715 35.9772C44.1971 35.9772 34.3417 44.9066 33.146 56.747L33.0354 57.8441L31.946 57.7089C31.3417 57.6327 30.8481 57.5989 30.3928 57.5989C23.6247 57.5989 18.1162 63.1248 18.1162 69.9191Z" fill="#EDF3F9"></path>
      </g>
    </g>
    <defs>
      <clipPath id="clip0_0_306">
        <rect width="100" height="100" fill="white"></rect>
      </clipPath>
      <clipPath id="clip1_0_306">
        <rect width="100" height="67" fill="white" transform="translate(0 16)"></rect>
      </clipPath>
    </defs>
  </symbol>
  <symbol fill="none" xmlns="http://www.w3.org/2000/svg" viewBox="0 0 100 100" id="code-2">
    <g clip-path="url(#clip0_0_1036)">
      <rect opacity="0.0229128" x="0.5" y="0.5" width="98.0099" height="99" stroke="#2B2B2B"></rect>
      <path fill-rule="evenodd" clip-rule="evenodd" d="M84.0972 50.74C83.0015 50.74 81.9075 50.86 80.8382 51.095C77.419 43.0233 69.4421 37.64 60.8101 37.64C50.0378 37.64 41.0807 45.375 39.2986 56.1183C39.2722 56.1183 39.2474 56.1183 39.2227 56.1183C32.1798 56.1183 26.4487 61.9617 26.4487 69.1417C26.4487 76.3217 32.1798 82.1633 39.2227 82.1633H84.0972C92.5923 82.1633 99.5032 75.115 99.5032 66.4517C99.5032 57.7883 92.5923 50.74 84.0972 50.74ZM96.4042 66.4517C96.4042 73.38 90.8827 79.015 84.0972 79.015H39.2227C33.8877 79.015 29.5477 74.5867 29.5477 69.1417C29.5477 63.6967 33.8877 59.265 39.2227 59.265C39.5791 59.265 39.9669 59.2933 40.4471 59.3533L42.0213 59.5533L42.1798 57.95C43.1517 48.165 51.1616 40.7867 60.8101 40.7867C68.7029 40.7867 75.7887 45.8967 78.4388 53.5033L78.9405 54.9383L80.3679 54.4767C81.5807 54.0867 82.8349 53.8883 84.0972 53.8883C90.8827 53.8883 96.4042 59.5233 96.4042 66.4517Z" fill="currentColor"></path>
      <path fill-rule="evenodd" clip-rule="evenodd" d="M21.2771 35.2683C21.8447 35.895 22.8167 35.9383 23.4371 35.365C24.0576 34.79 24.1005 33.8083 23.5329 33.1817L14.3942 23.1017C13.8266 22.475 12.853 22.4317 12.2342 23.0067C11.6137 23.58 11.5708 24.5617 12.1385 25.1883L21.2771 35.2683Z" fill="currentColor"></path>
      <path fill-rule="evenodd" clip-rule="evenodd" d="M20.5856 60.56L10.82 70.0217C10.2127 70.61 10.1913 71.5917 10.7738 72.205C11.3563 72.8183 12.3299 72.8383 12.9371 72.25L22.7028 62.79C23.3084 62.2017 23.3299 61.2183 22.7474 60.605C22.1649 59.9933 21.1913 59.9717 20.5856 60.56Z" fill="currentColor"></path>
      <path fill-rule="evenodd" clip-rule="evenodd" d="M36.5048 30.8267C37.3448 30.88 38.0741 30.23 38.1269 29.3833L38.9768 15.7417C39.0296 14.8933 38.386 14.1567 37.5477 14.1033C36.7078 14.05 35.9784 14.7 35.9256 15.5483L35.0758 29.1883C35.023 30.0367 35.6665 30.7733 36.5048 30.8267Z" fill="currentColor"></path>
      <path fill-rule="evenodd" clip-rule="evenodd" d="M18.0609 47.1667C18.1269 46.32 17.4932 45.5733 16.655 45.5067L3.16321 44.45C2.32493 44.3833 1.58565 45.0233 1.51965 45.87C1.45529 46.7167 2.0873 47.4633 2.92724 47.53L16.419 48.5867C17.2573 48.6533 17.9965 48.0133 18.0609 47.1667Z" fill="currentColor"></path>
      <path fill-rule="evenodd" clip-rule="evenodd" d="M41.9307 36.1267C40.2046 35.1633 38.2591 34.2967 36.1666 34.14C28.3713 33.5533 21.5561 39.4833 20.9769 47.3567C20.6023 52.4433 22.929 57.1067 26.7195 59.935C27.1336 59.1933 27.6914 58.3817 28.4356 57.5833C25.4191 55.3317 23.566 51.6217 23.8647 47.5733C24.3267 41.3083 29.7492 36.59 35.9505 37.0567C37.1666 37.1483 36.8366 36.8333 37.9059 37.2783L38.3201 37.4367C38.3201 37.4367 39.6204 36.0883 41.9307 36.1267Z" fill="currentColor"></path>
      <path fill-rule="evenodd" clip-rule="evenodd" d="M91.6764 46.175C91.6764 39.2383 86.1434 33.595 79.3415 33.595C78.4636 33.595 77.5873 33.69 76.7309 33.8783C73.9949 27.415 67.6071 23.1033 60.6946 23.1033C52.0708 23.1033 44.8976 29.2983 43.4702 37.9C43.4504 37.9 43.4289 37.9 43.4091 37.9C37.7705 37.9 33.1814 42.5783 33.1814 48.3283C33.1814 50.045 33.6022 51.6567 34.3266 53.0833C34.9058 52.7933 35.7177 52.5033 36.7639 52.3367C36.0758 51.16 35.6632 49.7967 35.6632 48.3283C35.6632 43.9683 39.1385 40.42 43.4091 40.42C43.6946 40.42 44.0065 40.4433 44.3893 40.4917L45.65 40.65L45.7771 39.3667C46.556 31.5333 52.9685 25.625 60.6946 25.625C67.0147 25.625 72.688 29.7167 74.8118 35.8067L75.2127 36.9567L76.3563 36.5867C77.3266 36.2733 78.3299 36.115 79.3415 36.115C84.7755 36.115 89.1962 40.6283 89.1962 46.175C89.1962 46.74 89.1418 47.2917 89.0527 47.8317C89.7342 47.9933 90.5873 48.275 91.4042 48.75C91.5758 47.9183 91.6764 47.0583 91.6764 46.175Z" fill="currentColor"></path>
    </g>
    <defs>
      <clipPath id="clip0_0_1036">
        <rect width="100" height="100" fill="currentColor"></rect>
      </clipPath>
    </defs>
  </symbol>
  <symbol fill="none" xmlns="http://www.w3.org/2000/svg" viewBox="0 0 100 100" id="code-2-colorful">
    <g clip-path="url(#clip0_0_344)">
      <rect opacity="0.0229128" x="0.5" y="0.5" width="98.0099" height="99" stroke="#2B2B2B"></rect>
      <g clip-path="url(#clip1_0_344)">
        <path fill-rule="evenodd" clip-rule="evenodd" d="M30.2735 33.5172C37.8312 33.5229 43.9523 39.5952 43.9465 47.081C43.9408 54.5667 37.81 60.6295 30.2523 60.6238C22.6946 60.6181 16.5735 54.5457 16.5792 47.06C16.585 39.5743 22.7158 33.5114 30.2735 33.5172Z" fill="#F9C900"></path>
        <path fill-rule="evenodd" clip-rule="evenodd" d="M27.0108 65.147C27.0108 65.3108 26.9896 65.4746 26.9454 65.6404L24.6743 74.008C24.3993 75.0213 23.3473 75.6213 22.3243 75.3489C21.2993 75.0765 20.6935 74.0346 20.9685 73.0213L23.2396 64.6537C23.5146 63.6404 24.5666 63.0404 25.5896 63.3108C26.4473 63.5394 27.0108 64.3089 27.0108 65.147Z" fill="#F9C900"></path>
        <path fill-rule="evenodd" clip-rule="evenodd" d="M17.5053 61.7118C17.5053 62.2242 17.2976 62.7346 16.8861 63.108L10.4534 68.9803C9.67456 69.6908 8.4611 69.6413 7.74379 68.8699C7.02456 68.0984 7.07456 66.8965 7.85341 66.1842L14.2861 60.3137C15.0669 59.6032 16.2803 59.6508 16.9976 60.4242C17.338 60.788 17.5053 61.2508 17.5053 61.7118Z" fill="#F9C900"></path>
        <mask id="mask0_0_344" maskUnits="userSpaceOnUse" x="0" y="50" width="13" height="7">
          <path fill-rule="evenodd" clip-rule="evenodd" d="M0 50.583V56.5527H12.3067V50.583L0 50.583L0 50.583Z" fill="white"></path>
        </mask>
        <g mask="url(#mask0_0_344)">
          <path fill-rule="evenodd" clip-rule="evenodd" d="M12.3067 52.486C12.3067 53.3317 11.7317 54.1012 10.8682 54.3222L2.39901 56.4917C1.37401 56.7546 0.32593 56.1432 0.0605455 55.1279C-0.202916 54.1127 0.412469 53.0746 1.43939 52.8117L9.90862 50.6441C10.9336 50.3812 11.9798 50.9908 12.2452 52.0079C12.2875 52.1679 12.3067 52.3279 12.3067 52.486Z" fill="#F9C900"></path>
        </g>
        <path fill-rule="evenodd" clip-rule="evenodd" d="M12.576 41.8407C12.576 41.9969 12.5567 42.155 12.5144 42.315C12.251 43.3303 11.2048 43.9417 10.1798 43.6807L1.70673 41.5207C0.681729 41.2598 0.0644211 40.2217 0.327883 39.2064C0.591344 38.1912 1.6375 37.5798 2.66442 37.8407L11.1356 40.0007C12.001 40.2217 12.576 40.9931 12.576 41.8407Z" fill="#F9C900"></path>
        <path fill-rule="evenodd" clip-rule="evenodd" d="M17.4581 32.5882C17.4581 33.0644 17.2792 33.5406 16.9177 33.9082C16.1812 34.6625 14.9658 34.6815 14.2042 33.952L7.92155 27.9234C7.16001 27.1939 7.14078 25.992 7.87732 25.2377C8.61386 24.4834 9.82924 24.4644 10.5908 25.1939L16.8735 31.2206C17.2639 31.5939 17.4581 32.091 17.4581 32.5882Z" fill="#F9C900"></path>
        <path fill-rule="evenodd" clip-rule="evenodd" d="M26.3706 27.3051C26.3706 28.1547 25.7898 28.928 24.9206 29.1451C23.8937 29.4023 22.8494 28.7851 22.5917 27.7661L20.4533 19.3642C20.1956 18.3451 20.8187 17.3147 21.8456 17.0575C22.8725 16.8023 23.9167 17.4194 24.1744 18.4366L26.3129 26.8385C26.3514 26.9947 26.3706 27.1509 26.3706 27.3051Z" fill="#F9C900"></path>
        <path fill-rule="evenodd" clip-rule="evenodd" d="M39.2137 19.5223C39.2137 19.6823 39.1925 19.8442 39.1502 20.0061L36.9271 28.3851C36.6579 29.4004 35.6079 30.0061 34.5829 29.7394C33.5598 29.4727 32.9464 28.4327 33.2156 27.4194L35.4387 19.0385C35.7079 18.0251 36.7579 17.4175 37.7829 17.6842C38.6444 17.9089 39.2137 18.6785 39.2137 19.5223Z" fill="#F9C900"></path>
        <path fill-rule="evenodd" clip-rule="evenodd" d="M53.1249 26.7573C53.1249 27.2868 52.9018 27.8144 52.4653 28.1897L45.8653 33.8773C45.0672 34.5649 43.8537 34.4811 43.1595 33.6906C42.4633 32.8983 42.5479 31.6983 43.3479 31.0087L49.9479 25.323C50.746 24.6335 51.9576 24.7173 52.6537 25.5097C52.971 25.8697 53.1249 26.3154 53.1249 26.7573Z" fill="#F9C900"></path>
        <path fill-rule="evenodd" clip-rule="evenodd" d="M59.9268 39.4385C59.9268 40.2728 59.3671 41.0366 58.5152 41.269L50.0806 43.5604C49.0575 43.8385 48.0018 43.2442 47.7229 42.2309C47.4421 41.2175 48.0421 40.1737 49.0652 39.8956L57.4998 37.6042C58.5229 37.3261 59.5768 37.9204 59.8575 38.9337C59.9037 39.1014 59.9268 39.2709 59.9268 39.4385Z" fill="#F9C900"></path>
        <path fill-rule="evenodd" clip-rule="evenodd" d="M59.7817 54.2526C59.7817 54.4088 59.7624 54.5669 59.7201 54.7269C59.4567 55.7421 58.4105 56.3535 57.3855 56.0926L48.9124 53.9326C47.8874 53.6716 47.2682 52.6355 47.5336 51.6183C47.7971 50.6031 48.8432 49.9916 49.8701 50.2526L58.3413 52.4126C59.2067 52.6335 59.7817 53.405 59.7817 54.2526Z" fill="#F9C900"></path>
        <path fill-rule="evenodd" clip-rule="evenodd" d="M52.6179 67.2996C52.6179 67.793 52.4256 68.2844 52.041 68.6558C51.2833 69.3911 50.0679 69.3777 49.3276 68.6273L43.2122 62.4311C42.4718 61.6806 42.4852 60.4787 43.2429 59.7454C44.0006 59.0101 45.216 59.0235 45.9564 59.7739L52.0718 65.9701C52.4372 66.3396 52.6179 66.8196 52.6179 67.2996Z" fill="#F9C900"></path>
        <path fill-rule="evenodd" clip-rule="evenodd" d="M39.4106 74.3068C39.4106 75.1449 38.8472 75.9106 37.9914 76.1392C36.9683 76.4116 35.9145 75.8116 35.6395 74.7982L33.3625 66.4325C33.0875 65.4192 33.6933 64.3773 34.7164 64.103C35.7395 63.8306 36.7933 64.4306 37.0683 65.444L39.3433 73.8097C39.3895 73.9754 39.4106 74.143 39.4106 74.3068Z" fill="#F9C900"></path>
        <path fill-rule="evenodd" clip-rule="evenodd" d="M89.301 49.5734C94.8394 49.5734 99.3452 54.0953 99.3452 59.6572C99.3452 65.2153 94.8394 69.7372 89.301 69.7372H45.6298C38.6798 69.7372 33.024 64.0591 33.024 57.08C33.024 50.101 38.6798 44.4229 45.6298 44.4229C46.924 44.4229 48.2106 44.6229 49.449 45.0172L50.2587 45.2743L50.5433 44.4724C53.2125 36.9391 60.3452 31.8781 68.2914 31.8781C78.0067 31.8781 86.0702 39.1848 87.049 48.8762L87.1394 49.7734L88.0317 49.6629C88.524 49.6019 88.9279 49.5734 89.301 49.5734Z" fill="#C8D0D6"></path>
        <path fill-rule="evenodd" clip-rule="evenodd" d="M17.7248 60.0628C11.6075 60.0628 6.62866 65.0419 6.62866 71.1638C6.62866 77.2819 11.6075 82.2628 17.7248 82.2628H65.969C73.6498 82.2628 79.896 76.0114 79.896 68.3276C79.896 60.6438 73.6498 54.3924 65.969 54.3924C64.5402 54.3924 63.119 54.6133 61.7498 55.0457L60.8575 55.3295L60.5421 54.4457C57.594 46.1524 49.7133 40.5809 40.9344 40.5809C30.2017 40.5809 21.294 48.6266 20.2133 59.2952L20.1133 60.2838L19.1287 60.1619C18.5825 60.0933 18.1364 60.0628 17.7248 60.0628Z" fill="#EDF3F9"></path>
      </g>
    </g>
    <defs>
      <clipPath id="clip0_0_344">
        <rect width="100" height="100" fill="white"></rect>
      </clipPath>
      <clipPath id="clip1_0_344">
        <rect width="100" height="66" fill="white" transform="translate(0 17)"></rect>
      </clipPath>
    </defs>
  </symbol>
  <symbol fill="none" xmlns="http://www.w3.org/2000/svg" viewBox="0 0 100 100" id="code-3">
    <g clip-path="url(#clip0_0_917)">
      <g clip-path="url(#clip1_0_917)">
        <rect opacity="0.0229128" x="-0.5" y="0.5" width="99" height="99" transform="matrix(-1 0 0 1 99 0)" stroke="#2B2B2B"></rect>
      </g>
      <path fill-rule="evenodd" clip-rule="evenodd" d="M80.949 60.229H87.5804C91.9033 60.229 95.4199 56.6952 95.4199 52.3506C95.4199 48.0046 91.9033 44.4693 87.5804 44.4693C87.2924 44.4693 86.9763 44.4928 86.5879 44.5398L85.3118 44.6984L85.1848 43.4206C84.3961 35.6128 77.9065 29.726 70.0862 29.726C66.6908 29.726 63.4859 30.8849 60.8983 32.8706C60.34 32.239 59.7552 31.6413 59.1378 31.0846C62.2098 28.6465 66.0572 27.2144 70.0862 27.2144C78.8163 27.2144 86.0739 33.3861 87.5184 41.9592C87.539 41.9592 87.5597 41.9592 87.5804 41.9592C93.2872 41.9592 97.9307 46.621 97.9307 52.3506C97.9307 58.0788 93.2872 62.7406 87.5804 62.7406H80.8899C80.949 62.2206 80.9904 61.6934 80.9904 61.1558C80.9904 60.8429 80.9697 60.536 80.949 60.229Z" fill="currentColor"></path>
      <path fill-rule="evenodd" clip-rule="evenodd" d="M19.0687 41.9842C20.1824 41.9842 21.293 42.1032 22.3785 42.3396C25.8508 34.2674 33.9532 28.8829 42.7202 28.8829C53.6598 28.8829 62.7576 36.6188 64.5683 47.3627C64.5949 47.3627 64.62 47.3627 64.6451 47.3627C71.7993 47.3627 77.6184 53.2054 77.6184 60.3862C77.6184 67.5669 71.7993 73.4081 64.6451 73.4081H19.0687C10.4406 73.4081 3.42075 66.3596 3.42075 57.6969C3.42075 49.0327 10.4406 41.9842 19.0687 41.9842ZM6.56807 57.6969C6.56807 64.625 12.1759 70.2606 19.0687 70.2606H64.6451C70.0639 70.2606 74.4726 65.8323 74.4726 60.3862C74.4726 54.94 70.0639 50.5103 64.6451 50.5103C64.2847 50.5103 63.8889 50.5382 63.4015 50.5984L61.8035 50.7967L61.6425 49.1943C60.6545 39.4095 52.5196 32.0305 42.7202 32.0305C34.7035 32.0305 27.5079 37.1417 24.814 44.7469L24.3059 46.1833L22.8556 45.7207C21.6238 45.33 20.3507 45.1332 19.0687 45.1332C12.1759 45.1332 6.56807 50.7688 6.56807 57.6969Z" fill="currentColor"></path>
    </g>
    <defs>
      <clipPath id="clip0_0_917">
        <rect width="100" height="100" fill="currentColor" transform="matrix(-1 0 0 1 100 0)"></rect>
      </clipPath>
      <clipPath id="clip1_0_917">
        <rect width="100" height="100" fill="currentColor" transform="matrix(-1 0 0 1 100 0)"></rect>
      </clipPath>
    </defs>
  </symbol>
  <symbol fill="none" xmlns="http://www.w3.org/2000/svg" viewBox="0 0 100 100" id="code-3-colorful">
    <g clip-path="url(#clip0_0_213)">
      <rect opacity="0.0229128" x="0.5" y="0.5" width="99" height="99" stroke="#2B2B2B"></rect>
      <g clip-path="url(#clip1_0_213)">
        <path fill-rule="evenodd" clip-rule="evenodd" d="M88.6201 42.0381C94.5571 42.0381 99.387 46.9061 99.387 52.8938C99.387 58.8774 94.5571 63.7455 88.6201 63.7455H41.8071C34.3571 63.7455 28.2944 57.6327 28.2944 50.1194C28.2944 42.6061 34.3571 36.4933 41.8071 36.4933C43.1945 36.4933 44.5736 36.7086 45.9011 37.1331L46.769 37.4099L47.0741 36.5466C49.9353 28.4366 57.5812 22.9882 66.099 22.9882C76.5134 22.9882 85.1569 30.8542 86.2062 41.2875L86.3031 42.2534L87.2596 42.1344C87.7873 42.0688 88.2202 42.0381 88.6201 42.0381Z" fill="#C8D0D6"></path>
        <path fill-rule="evenodd" clip-rule="evenodd" d="M11.8942 53.3306C5.3368 53.3306 -0.000244141 58.6909 -0.000244141 65.2814C-0.000244141 71.8679 5.3368 77.2302 11.8942 77.2302H63.6093C71.8427 77.2302 78.5382 70.5002 78.5382 62.2281C78.5382 53.9561 71.8427 47.2261 63.6093 47.2261C62.0777 47.2261 60.5543 47.4639 59.0865 47.9294L58.13 48.2349L57.792 47.2835C54.6318 38.3552 46.184 32.3573 36.7736 32.3573C25.2688 32.3573 15.7202 41.019 14.5617 52.5043L14.4545 53.5685L13.3991 53.4373C12.8136 53.3635 12.3354 53.3306 11.8942 53.3306Z" fill="#EDF3F9"></path>
      </g>
    </g>
    <defs>
      <clipPath id="clip0_0_213">
        <rect width="100" height="100" fill="white"></rect>
      </clipPath>
      <clipPath id="clip1_0_213">
        <rect width="100" height="56" fill="white" transform="translate(0 22)"></rect>
      </clipPath>
    </defs>
  </symbol>
  <symbol fill="none" xmlns="http://www.w3.org/2000/svg" viewBox="0 0 100 100" id="code-45-48">
    <g clip-path="url(#clip0_0_1058)">
      <g clip-path="url(#clip1_0_1058)">
        <rect opacity="0.0229128" x="-0.5" y="0.5" width="99" height="99" transform="matrix(-1 0 0 1 99 0)" stroke="#2B2B2B"></rect>
      </g>
      <g clip-path="url(#clip2_0_1058)">
        <path fill-rule="evenodd" clip-rule="evenodd" d="M84.408 66.8071H12.6495C11.6171 66.8071 10.7724 66.0146 10.7724 65.0444C10.7724 64.0758 11.6171 63.2833 12.6495 63.2833H84.408C85.4404 63.2833 86.2852 64.0758 86.2852 65.0444C86.2852 66.0146 85.4404 66.8071 84.408 66.8071Z" fill="currentColor"></path>
        <path fill-rule="evenodd" clip-rule="evenodd" d="M67.6946 78.1921H12.6495C11.6171 78.1921 10.7724 77.3997 10.7724 76.4294C10.7724 75.4608 11.6171 74.6683 12.6495 74.6683H67.6946C68.727 74.6683 69.5735 75.4608 69.5735 76.4294C69.5735 77.3997 68.727 78.1921 67.6946 78.1921Z" fill="currentColor"></path>
        <path fill-rule="evenodd" clip-rule="evenodd" d="M27.2511 23.68C28.4243 23.68 29.594 23.8017 30.7377 24.04C34.3946 15.8433 42.9286 10.375 52.1613 10.375C63.683 10.375 73.2651 18.2317 75.1717 29.1417C75.1996 29.1417 75.2256 29.1417 75.2534 29.1417C82.7863 29.1417 88.9165 35.075 88.9165 42.3683C88.9165 49.6617 82.7863 55.5933 75.2534 55.5933H27.2511C18.1644 55.5933 10.7723 48.435 10.7723 39.6367C10.7723 30.8383 18.1644 23.68 27.2511 23.68ZM14.0868 39.6367C14.0868 46.6733 19.9911 52.3967 27.2511 52.3967H75.2534C80.9596 52.3967 85.602 47.8983 85.602 42.3683C85.602 36.8383 80.9596 32.3383 75.2534 32.3383C74.8728 32.3383 74.4557 32.3667 73.9429 32.4283L72.2587 32.63L72.0901 31.0017C71.0508 21.065 62.482 13.5717 52.1613 13.5717C43.7177 13.5717 36.1396 18.7617 33.3031 26.4867L32.766 27.945L31.24 27.475C29.9434 27.0783 28.6016 26.8767 27.2511 26.8767C19.9911 26.8767 14.0868 32.6 14.0868 39.6367Z" fill="currentColor"></path>
        <path fill-rule="evenodd" clip-rule="evenodd" d="M49.5472 89.1205H12.6494C11.617 89.1205 10.7723 88.3276 10.7723 87.3586C10.7723 86.3895 11.617 85.5967 12.6494 85.5967H49.5472C50.5813 85.5967 51.426 86.3895 51.426 87.3586C51.426 88.3276 50.5813 89.1205 49.5472 89.1205Z" fill="currentColor"></path>
      </g>
    </g>
    <defs>
      <clipPath id="clip0_0_1058">
        <rect width="100" height="100" fill="currentColor" transform="matrix(-1 0 0 1 100 0)"></rect>
      </clipPath>
      <clipPath id="clip1_0_1058">
        <rect width="100" height="100" fill="currentColor" transform="matrix(-1 0 0 1 100 0)"></rect>
      </clipPath>
      <clipPath id="clip2_0_1058">
        <rect width="79" height="80" fill="currentColor" transform="matrix(-1 0 0 1 89 10)"></rect>
      </clipPath>
    </defs>
  </symbol>
  <symbol fill="none" xmlns="http://www.w3.org/2000/svg" viewBox="0 0 100 100" id="code-45-48-colorful">
    <g clip-path="url(#clip0_0_371)">
      <rect opacity="0.0229128" x="0.5" y="0.5" width="99" height="99" stroke="#2B2B2B"></rect>
      <g clip-path="url(#clip1_0_371)">
        <path fill-rule="evenodd" clip-rule="evenodd" d="M85.089 70.0569H14.5771C13.3937 70.0569 12.4355 69.0855 12.4355 67.8855C12.4355 66.6856 13.3937 65.7141 14.5771 65.7141H85.089C86.2724 65.7141 87.2305 66.6856 87.2305 67.8855C87.2305 69.0855 86.2724 70.0569 85.089 70.0569Z" fill="#C8D0D6"></path>
        <path fill-rule="evenodd" clip-rule="evenodd" d="M85.089 80.3704H14.5771C13.3937 80.3704 12.4355 79.3989 12.4355 78.199C12.4355 76.9991 13.3937 76.0276 14.5771 76.0276H85.089C86.2724 76.0276 87.2305 76.9991 87.2305 78.199C87.2305 79.3989 86.2724 80.3704 85.089 80.3704Z" fill="#C8D0D6"></path>
        <path fill-rule="evenodd" clip-rule="evenodd" d="M61.2094 90.1367H14.5763C13.3928 90.1367 12.4347 89.1652 12.4347 87.9652C12.4347 86.7653 13.3928 85.7938 14.5763 85.7938H61.2094C62.3928 85.7938 63.3509 86.7653 63.3509 87.9652C63.3509 89.1652 62.3928 90.1367 61.2094 90.1367Z" fill="#C8D0D6"></path>
        <path fill-rule="evenodd" clip-rule="evenodd" d="M20.6216 33.5802C13.6632 33.5802 7.99976 39.3781 7.99976 46.5067C7.99976 53.6309 13.6632 59.431 20.6216 59.431H75.4994C84.2363 59.431 91.3413 52.1515 91.3413 43.2041C91.3413 34.2567 84.2363 26.9773 75.4994 26.9773C73.8741 26.9773 72.2576 27.2346 70.7001 27.738L69.6851 28.0685L69.3263 27.0394C65.9729 17.3822 57.0085 10.8946 47.0226 10.8946C34.8141 10.8946 24.6816 20.2634 23.4523 32.6864L23.3385 33.8375L22.2185 33.6956C21.5973 33.6157 21.0898 33.5802 20.6216 33.5802Z" fill="#EDF3F9"></path>
      </g>
    </g>
    <defs>
      <clipPath id="clip0_0_371">
        <rect width="100" height="100" fill="white"></rect>
      </clipPath>
      <clipPath id="clip1_0_371">
        <rect width="84" height="81" fill="white" transform="translate(8 10)"></rect>
      </clipPath>
    </defs>
  </symbol>
  <symbol fill="none" xmlns="http://www.w3.org/2000/svg" viewBox="0 0 100 100" id="code-51-53-55-56-57">
    <g clip-path="url(#clip0_0_1119)">
      <rect opacity="0.0229128" x="0.5" y="0.5" width="99" height="99" stroke="#2B2B2B"></rect>
      <path fill-rule="evenodd" clip-rule="evenodd" d="M70.3453 31.979C69.1876 31.979 68.0313 32.1028 66.9009 32.346C63.287 23.9833 54.8556 18.4039 45.7318 18.4039C34.3472 18.4039 24.8801 26.4196 22.9941 37.5513C22.9683 37.5513 22.941 37.5513 22.9151 37.5513C15.4705 37.5513 9.41333 43.6057 9.41333 51.0468C9.41333 58.4878 15.4705 64.5408 22.9151 64.5408H70.3453C79.324 64.5408 86.6294 57.2363 86.6294 48.2592C86.6294 39.2821 79.324 31.979 70.3453 31.979ZM83.3545 48.2592C83.3545 55.4386 77.52 61.2782 70.3453 61.2782H22.9151C17.276 61.2782 12.6882 56.6887 12.6882 51.0468C12.6882 45.4034 17.276 40.8124 22.9151 40.8124C23.2915 40.8124 23.7023 40.8423 24.2079 40.9035L25.8726 41.1111L26.0392 39.45C27.0677 29.3109 35.5336 21.6651 45.7318 21.6651C54.0756 21.6651 61.5634 26.96 64.3657 34.842L64.8957 36.3296L66.4054 35.8503C67.6866 35.4464 69.0124 35.2416 70.3453 35.2416C77.52 35.2416 83.3545 41.0812 83.3545 48.2592Z" fill="currentColor"></path>
      <path fill-rule="evenodd" clip-rule="evenodd" d="M23.1435 73.5193C24.5224 76.0124 25.9013 78.5042 27.2816 80.9973C28.2411 82.7324 30.9214 81.1836 29.9605 79.4471C28.5816 76.954 27.2026 74.4608 25.8223 71.9676C24.8628 70.2325 22.1826 71.7813 23.1435 73.5193Z" fill="currentColor"></path>
      <path fill-rule="evenodd" clip-rule="evenodd" d="M38.517 73.5193C39.8959 76.0124 41.2748 78.5042 42.6537 80.9973C43.6146 82.7324 46.2949 81.1836 45.334 79.4471C43.9551 76.954 42.5762 74.4608 41.1958 71.9676C40.2363 70.2325 37.5546 71.7813 38.517 73.5193Z" fill="currentColor"></path>
      <path fill-rule="evenodd" clip-rule="evenodd" d="M54.6747 73.5193C56.055 76.0124 57.4339 78.5042 58.8128 80.9973C59.7723 82.7324 62.454 81.1836 61.4931 79.4471C60.1142 76.954 58.7338 74.4608 57.3549 71.9676C56.3954 70.2325 53.7137 71.7813 54.6747 73.5193Z" fill="currentColor"></path>
      <path fill-rule="evenodd" clip-rule="evenodd" d="M70.2907 73.5193C71.6696 76.0124 73.05 78.5042 74.4289 80.9973C75.3884 82.7324 78.07 81.1836 77.1091 79.4471C75.7288 76.954 74.3499 74.4608 72.971 71.9676C72.01 70.2325 69.3298 71.7813 70.2907 73.5193Z" fill="currentColor"></path>
    </g>
    <defs>
      <clipPath id="clip0_0_1119">
        <rect width="100" height="100" fill="currentColor"></rect>
      </clipPath>
    </defs>
  </symbol>
  <symbol fill="none" xmlns="http://www.w3.org/2000/svg" viewBox="0 0 100 100" id="code-51-53-55-56-57-colorful">
    <g clip-path="url(#clip0_0_424)">
      <rect opacity="0.0229128" x="0.5" y="0.5" width="99" height="99" stroke="#2B2B2B"></rect>
      <g clip-path="url(#clip1_0_424)">
        <path fill-rule="evenodd" clip-rule="evenodd" d="M31.1531 69.1921C31.1531 69.1921 28.3649 77.0071 29.097 80.0043C29.702 82.4841 32.1811 84.0187 34.6274 83.4271C37.0824 82.8334 38.5707 80.3361 37.9657 77.8584C37.2336 74.8591 31.1531 69.1921 31.1531 69.1921Z" fill="#C0EAF9"></path>
        <path fill-rule="evenodd" clip-rule="evenodd" d="M48.7439 68.9581C48.7439 68.9581 45.9557 76.7731 46.6878 79.7725C47.2928 82.2501 49.7719 83.7847 52.2181 83.1931C54.6731 82.5994 56.1615 80.1021 55.5565 77.6244C54.8244 74.6251 48.7439 68.9581 48.7439 68.9581Z" fill="#C0EAF9"></path>
        <path fill-rule="evenodd" clip-rule="evenodd" d="M64.9666 79.5272C65.5716 82.0071 68.0507 83.5417 70.4969 82.9501C72.9519 82.3563 74.4403 79.859 73.8331 77.3814C73.101 74.382 67.0227 68.7151 67.0227 68.7151C67.0227 68.7151 64.2345 76.53 64.9666 79.5272Z" fill="#C0EAF9"></path>
        <path fill-rule="evenodd" clip-rule="evenodd" d="M20.6474 38.0252C13.6748 38.0252 7.99979 43.7315 7.99979 50.7475C7.99979 57.7591 13.6748 63.4675 20.6474 63.4675H75.6373C84.392 63.4675 91.5116 56.3031 91.5116 47.4971C91.5116 38.691 84.392 31.5266 75.6373 31.5266C74.0087 31.5266 72.3888 31.7798 70.8281 32.2754L69.8111 32.6006L69.4516 31.5877C66.0913 22.0832 57.1086 15.6981 47.1023 15.6981C34.8689 15.6981 24.7157 24.9188 23.4838 37.1455L23.3699 38.2785L22.2476 38.1388C21.6251 38.0602 21.1165 38.0252 20.6474 38.0252Z" fill="#EDF3F9"></path>
      </g>
    </g>
    <defs>
      <clipPath id="clip0_0_424">
        <rect width="100" height="100" fill="white"></rect>
      </clipPath>
      <clipPath id="clip1_0_424">
        <rect width="84" height="69" fill="white" transform="translate(8 15)"></rect>
      </clipPath>
    </defs>
  </symbol>
  <symbol fill="none" xmlns="http://www.w3.org/2000/svg" viewBox="0 0 100 100" id="code-61-63-65-66-67-80-81-82">
    <g clip-path="url(#clip0_0_972)">
      <g clip-path="url(#clip1_0_972)">
        <rect opacity="0.0229128" x="0.5" y="0.5" width="99" height="99" stroke="#2B2B2B"></rect>
      </g>
      <path fill-rule="evenodd" clip-rule="evenodd" d="M72.3446 27.6969C71.16 27.6969 69.9785 27.8224 68.8216 28.0735C65.1277 19.4821 56.5077 13.7515 47.18 13.7515C35.5415 13.7515 25.8616 21.9847 23.9354 33.4214C23.9077 33.4199 23.88 33.4199 23.8539 33.4199C16.2431 33.4199 10.0508 39.6403 10.0508 47.2842C10.0508 54.9265 16.2431 61.1439 23.8539 61.1439H72.3446C81.5231 61.1439 88.9923 53.6408 88.9923 44.4204C88.9923 35.1985 81.5231 27.6969 72.3446 27.6969ZM85.6431 44.4204C85.6431 51.7949 79.6785 57.7934 72.3446 57.7934H23.8539C18.0892 57.7934 13.3985 53.0791 13.3985 47.2842C13.3985 41.4862 18.0892 36.7704 23.8539 36.7704C24.2385 36.7704 24.6585 36.801 25.1769 36.8638L26.8769 37.0765L27.0492 35.3699C28.0985 24.9556 36.7539 17.102 47.18 17.102C55.7108 17.102 63.3662 22.5418 66.2308 30.6372L66.7723 32.1648L68.3154 31.6735C69.6246 31.2571 70.98 31.0474 72.3446 31.0474C79.6785 31.0474 85.6431 37.0459 85.6431 44.4204Z" fill="currentColor"></path>
      <path fill-rule="evenodd" clip-rule="evenodd" d="M24.0878 70.3673C25.497 72.928 26.9078 75.4888 28.317 78.0495C29.2985 79.8311 32.0401 78.2408 31.057 76.4561C29.6462 73.8954 28.237 71.3347 26.8262 68.774C25.8447 66.9923 23.1047 68.5842 24.0878 70.3673Z" fill="currentColor"></path>
      <path fill-rule="evenodd" clip-rule="evenodd" d="M39.803 70.3673C41.2138 72.928 42.6246 75.4888 44.0338 78.0495C45.0153 79.8311 47.7569 78.2408 46.7738 76.4561C45.363 73.8954 43.9538 71.3347 42.543 68.774C41.5615 66.9923 38.8215 68.5842 39.803 70.3673Z" fill="currentColor"></path>
      <path fill-rule="evenodd" clip-rule="evenodd" d="M56.323 70.3673C57.7338 72.928 59.143 75.4888 60.5538 78.0495C61.5353 79.8311 64.2753 78.2408 63.2938 76.4561C61.883 73.8954 60.4723 71.3347 59.063 68.774C58.0815 66.9923 55.34 68.5842 56.323 70.3673Z" fill="currentColor"></path>
      <path fill-rule="evenodd" clip-rule="evenodd" d="M72.2876 70.3673C73.6984 72.928 75.1076 75.4888 76.5184 78.0495C77.4999 79.8311 80.2399 78.2408 79.2584 76.4561C77.8476 73.8954 76.4369 71.3347 75.0276 68.774C74.0461 66.9923 71.3046 68.5842 72.2876 70.3673Z" fill="currentColor"></path>
      <path fill-rule="evenodd" clip-rule="evenodd" d="M37.003 79.4408C38.4122 82.0015 39.823 84.5622 41.2322 87.123C42.2137 88.9046 44.9553 87.3143 43.9722 85.5296C42.563 82.9689 41.1522 80.4082 39.7414 77.8474C38.7614 76.0658 36.0199 77.6561 37.003 79.4408Z" fill="currentColor"></path>
      <path fill-rule="evenodd" clip-rule="evenodd" d="M52.7168 79.4362C54.1276 81.997 55.5368 84.5577 56.9476 87.1184C57.9291 88.9015 60.6691 87.3097 59.6876 85.525C58.2768 82.9643 56.8661 80.4036 55.4568 77.8429C54.4753 76.0612 51.7338 77.6531 52.7168 79.4362Z" fill="currentColor"></path>
      <path fill-rule="evenodd" clip-rule="evenodd" d="M68.7477 78.8025C70.1569 81.3633 71.5677 83.924 72.9769 86.4847C73.9585 88.2663 76.7 86.676 75.7169 84.8913C74.3062 82.3306 72.8969 79.7699 71.4862 77.2092C70.5046 75.4275 67.7646 77.0178 68.7477 78.8025Z" fill="currentColor"></path>
    </g>
    <defs>
      <clipPath id="clip0_0_972">
        <rect width="100" height="100" fill="currentColor"></rect>
      </clipPath>
      <clipPath id="clip1_0_972">
        <rect width="100" height="100" fill="currentColor"></rect>
      </clipPath>
    </defs>
  </symbol>
  <symbol fill="none" xmlns="http://www.w3.org/2000/svg" viewBox="0 0 100 100" id="code-61-63-65-66-67-80-81-82-colorful">
    <g clip-path="url(#clip0_0_259)">
      <rect opacity="0.0229128" x="0.5" y="0.5" width="99" height="99" stroke="#2B2B2B"></rect>
      <g clip-path="url(#clip1_0_259)">
        <path fill-rule="evenodd" clip-rule="evenodd" d="M22.8704 61.879C22.8704 61.879 20.1431 69.1637 20.8249 71.9454C21.3868 74.2461 23.7521 75.6557 26.1027 75.0889C28.4575 74.52 29.9011 72.1901 29.3371 69.8895C28.6574 67.1057 22.8704 61.879 22.8704 61.879Z" fill="#C0EAF9"></path>
        <path fill-rule="evenodd" clip-rule="evenodd" d="M39.7304 61.5405C39.7304 61.5405 37.0032 68.8252 37.685 71.6069C38.2469 73.9076 40.6122 75.3172 42.9628 74.7504C45.3176 74.1815 46.7612 71.8516 46.1972 69.551C45.5175 66.7672 39.7304 61.5405 39.7304 61.5405Z" fill="#C0EAF9"></path>
        <path fill-rule="evenodd" clip-rule="evenodd" d="M57.2498 61.1888C57.2498 61.1888 54.5225 68.4735 55.2043 71.2552C55.7662 73.5559 58.1315 74.9655 60.4821 74.3987C62.8369 73.8299 64.2805 71.4999 63.7165 69.1993C63.0368 66.4155 57.2498 61.1888 57.2498 61.1888Z" fill="#C0EAF9"></path>
        <path fill-rule="evenodd" clip-rule="evenodd" d="M73.7534 60.3716C73.7534 60.3716 71.0261 67.6563 71.7079 70.438C72.2698 72.7386 74.6351 74.1483 76.9857 73.5815C79.3405 73.0126 80.7841 70.6827 80.2201 68.382C79.5404 65.5982 73.7534 60.3716 73.7534 60.3716Z" fill="#C0EAF9"></path>
        <path fill-rule="evenodd" clip-rule="evenodd" d="M32.7609 77.2583C32.7609 77.2583 30.0337 84.543 30.7155 87.3247C31.2773 89.6253 33.6427 91.035 35.9933 90.4682C38.3481 89.8993 39.7917 87.5694 39.2277 85.2687C38.548 82.485 32.7609 77.2583 32.7609 77.2583Z" fill="#C0EAF9"></path>
        <path fill-rule="evenodd" clip-rule="evenodd" d="M50.2803 76.9065C50.2803 76.9065 47.553 84.1912 48.2349 86.9729C48.7967 89.2735 51.162 90.6832 53.5126 90.1164C55.8674 89.5475 57.311 87.2176 56.7471 84.9169C56.0673 82.1331 50.2803 76.9065 50.2803 76.9065Z" fill="#C0EAF9"></path>
        <path fill-rule="evenodd" clip-rule="evenodd" d="M66.7839 76.0891C66.7839 76.0891 64.0566 83.3738 64.7384 86.1555C65.3003 88.4561 67.6656 89.8658 70.0162 89.299C72.371 88.7301 73.8146 86.4002 73.2506 84.0996C72.5709 81.3158 66.7839 76.0891 66.7839 76.0891Z" fill="#C0EAF9"></path>
        <path fill-rule="evenodd" clip-rule="evenodd" d="M88.9602 34.0864C95.0208 34.0864 99.9514 39.0516 99.9514 45.1588C99.9514 51.2618 95.0208 56.227 88.9602 56.227H41.1719C33.5667 56.227 27.3777 49.9922 27.3777 42.329C27.3777 34.6657 33.5667 28.431 41.1719 28.431C42.5882 28.431 43.996 28.6506 45.3512 29.0835L46.2372 29.3659L46.5486 28.4854C49.4695 20.2135 57.2746 14.6564 65.9699 14.6564C76.6012 14.6564 85.4249 22.6794 86.496 33.3209L86.5949 34.306L87.5714 34.1847C88.1101 34.1178 88.552 34.0864 88.9602 34.0864Z" fill="#C8D0D6"></path>
        <path fill-rule="evenodd" clip-rule="evenodd" d="M12.142 32.0414C5.44802 32.0414 -0.000213623 37.5086 -0.000213623 44.2306C-0.000213623 50.9485 5.44802 56.4178 12.142 56.4178H64.9345C73.3394 56.4178 80.1744 49.5535 80.1744 41.1164C80.1744 32.6793 73.3394 25.815 64.9345 25.815C63.371 25.815 61.8159 26.0576 60.3175 26.5324L59.3411 26.844L58.996 25.8736C55.77 16.7672 47.1462 10.6495 37.5398 10.6495C25.7952 10.6495 16.0478 19.484 14.8651 31.1985L14.7557 32.284L13.6782 32.1501C13.0806 32.0748 12.5924 32.0414 12.142 32.0414Z" fill="#EDF3F9"></path>
      </g>
    </g>
    <defs>
      <clipPath id="clip0_0_259">
        <rect width="100" height="100" fill="white"></rect>
      </clipPath>
      <clipPath id="clip1_0_259">
        <rect width="100" height="81" fill="white" transform="translate(0 10)"></rect>
      </clipPath>
    </defs>
  </symbol>
  <symbol fill="none" xmlns="http://www.w3.org/2000/svg" viewBox="0 0 100 100" id="code-71-73-75-77">
    <g clip-path="url(#clip0_0_1110)">
      <rect opacity="0.0229128" x="0.5" y="0.5" width="99" height="99" stroke="#2B2B2B"></rect>
      <g clip-path="url(#clip1_0_1110)">
        <path fill-rule="evenodd" clip-rule="evenodd" d="M71.9875 33.9959C70.8431 33.9959 69.7014 34.1194 68.5853 34.3634C65.0186 26.0206 56.6925 20.4554 47.6856 20.4554C36.4437 20.4554 27.0964 28.4506 25.2358 39.5555C25.2088 39.554 25.1819 39.554 25.1563 39.554C17.8059 39.554 11.8254 45.5945 11.8254 53.0166C11.8254 60.4373 17.8059 66.4749 25.1563 66.4749H71.9875C80.8526 66.4749 88.0655 59.1889 88.0655 50.2361C88.0655 41.2819 80.8526 33.9959 71.9875 33.9959ZM84.832 50.2361C84.832 57.3958 79.0699 63.2206 71.9875 63.2206H25.1563C19.5886 63.2206 15.0589 58.6428 15.0589 53.0166C15.0589 47.3876 19.5886 42.8083 25.1563 42.8083C25.5279 42.8083 25.9335 42.8367 26.4341 42.8991L28.0764 43.1048L28.2423 41.4479C29.2563 31.3346 37.6151 23.7096 47.6856 23.7096C55.9224 23.7096 63.3154 28.9911 66.0837 36.8516L66.6055 38.3355L68.0961 37.8574C69.3611 37.4545 70.6701 37.2502 71.9875 37.2502C79.0699 37.2502 84.832 43.075 84.832 50.2361Z" fill="currentColor"></path>
        <path fill-rule="evenodd" clip-rule="evenodd" d="M57.1807 76.799C57.1807 78.4928 55.8093 79.8646 54.1174 79.8646C52.4255 79.8646 51.0527 78.4928 51.0527 76.799C51.0527 75.1066 52.4255 73.7348 54.1174 73.7348C55.8093 73.7348 57.1807 75.1066 57.1807 76.799Z" fill="currentColor"></path>
        <path fill-rule="evenodd" clip-rule="evenodd" d="M77.3581 75.7824C77.3581 77.4762 75.9853 78.848 74.2935 78.848C72.6016 78.848 71.2288 77.4762 71.2288 75.7824C71.2288 74.09 72.6016 72.7182 74.2935 72.7182C75.9853 72.7182 77.3581 74.09 77.3581 75.7824Z" fill="currentColor"></path>
        <path fill-rule="evenodd" clip-rule="evenodd" d="M36.9441 77.1116C36.9441 78.8054 35.5727 80.1772 33.8809 80.1772C32.1875 80.1772 30.8162 78.8054 30.8162 77.1116C30.8162 75.4192 32.1875 74.0474 33.8809 74.0474C35.5727 74.0474 36.9441 75.4192 36.9441 77.1116Z" fill="currentColor"></path>
      </g>
    </g>
    <defs>
      <clipPath id="clip0_0_1110">
        <rect width="100" height="100" fill="currentColor"></rect>
      </clipPath>
      <clipPath id="clip1_0_1110">
        <rect width="78" height="61" fill="currentColor" transform="translate(11 20)"></rect>
      </clipPath>
    </defs>
  </symbol>
  <symbol fill="none" xmlns="http://www.w3.org/2000/svg" viewBox="0 0 100 100" id="code-71-73-75-77-colorful">
    <g clip-path="url(#clip0_0_417)">
      <rect opacity="0.0229128" x="0.5" y="0.5" width="99" height="99" stroke="#2B2B2B"></rect>
      <g clip-path="url(#clip1_0_417)">
        <path fill-rule="evenodd" clip-rule="evenodd" d="M34.9605 77.5139C34.9605 80.3658 32.6176 82.6785 29.7285 82.6785C26.8393 82.6785 24.4986 80.3658 24.4986 77.5139C24.4986 74.662 26.8393 72.3492 29.7285 72.3492C32.6176 72.3492 34.9605 74.662 34.9605 77.5139Z" fill="#C0EAF9"></path>
        <path fill-rule="evenodd" clip-rule="evenodd" d="M54.2963 77.5139C54.2963 80.3658 51.9534 82.6785 49.0643 82.6785C46.1751 82.6785 43.8344 80.3658 43.8344 77.5139C43.8344 74.662 46.1751 72.3492 49.0643 72.3492C51.9534 72.3492 54.2963 74.662 54.2963 77.5139Z" fill="#C0EAF9"></path>
        <path fill-rule="evenodd" clip-rule="evenodd" d="M73.8304 77.5139C73.8304 80.3658 71.4875 82.6785 68.5983 82.6785C65.7092 82.6785 63.3685 80.3658 63.3685 77.5139C63.3685 74.662 65.7092 72.3492 68.5983 72.3492C71.4875 72.3492 73.8304 74.662 73.8304 77.5139Z" fill="#C0EAF9"></path>
        <path fill-rule="evenodd" clip-rule="evenodd" d="M20.6576 39.1716C13.6794 39.1716 7.99979 44.8321 7.99979 51.792C7.99979 58.7475 13.6794 64.4102 20.6576 64.4102H75.6918C84.4535 64.4102 91.5788 57.3031 91.5788 48.5676C91.5788 39.8321 84.4535 32.725 75.6918 32.725C74.0618 32.725 72.4407 32.9762 70.8787 33.4678L69.8608 33.7904L69.5011 32.7856C66.1381 23.3572 57.1482 17.0232 47.1338 17.0232C34.8906 17.0232 24.7292 26.1701 23.4963 38.2989L23.3822 39.4228L22.259 39.2842C21.636 39.2063 21.1271 39.1716 20.6576 39.1716Z" fill="#EDF3F9"></path>
      </g>
    </g>
    <defs>
      <clipPath id="clip0_0_417">
        <rect width="100" height="100" fill="white"></rect>
      </clipPath>
      <clipPath id="clip1_0_417">
        <rect width="84" height="66" fill="white" transform="translate(8 17)"></rect>
      </clipPath>
    </defs>
  </symbol>
  <symbol fill="none" xmlns="http://www.w3.org/2000/svg" viewBox="0 0 100 100" id="code-85-86">
    <g clip-path="url(#clip0_0_1203)">
      <g clip-path="url(#clip1_0_1203)">
        <rect opacity="0.0229128" x="0.5" y="0.5" width="99" height="99" stroke="#2B2B2B"></rect>
      </g>
      <path fill-rule="evenodd" clip-rule="evenodd" d="M69.053 26.737C67.9246 26.737 66.7976 26.8594 65.6958 27.1015C62.1734 18.8245 53.9554 13.3033 45.0626 13.3033C33.9648 13.3033 24.7374 21.2354 22.9006 32.2526C22.874 32.2512 22.8488 32.2512 22.8222 32.2512C15.566 32.2512 9.66357 38.2425 9.66357 45.6061C9.66357 52.9697 15.566 58.9596 22.8222 58.9596H69.053C77.8044 58.9596 84.9248 51.7311 84.9248 42.8476C84.9248 33.9654 77.8044 26.737 69.053 26.737ZM81.7328 42.8476C81.7328 49.9522 76.0446 55.731 69.053 55.731H22.8222C17.3258 55.731 12.8556 51.1893 12.8556 45.6061C12.8556 40.0215 17.3258 35.4784 22.8222 35.4784C23.189 35.4784 23.5894 35.5079 24.0836 35.5699L25.7062 35.7739L25.8686 34.1301C26.871 24.0967 35.1212 16.5305 45.0626 16.5305C53.1938 16.5305 60.4934 21.7702 63.2248 29.5701L63.7414 31.0422L65.2114 30.568C66.4602 30.1682 67.7524 29.9656 69.053 29.9656C76.0446 29.9656 81.7328 35.7444 81.7328 42.8476Z" fill="currentColor"></path>
      <path fill-rule="evenodd" clip-rule="evenodd" d="M53.4375 68.1936C53.4375 69.8726 52.0823 71.235 50.4121 71.235C48.7419 71.235 47.3867 69.8726 47.3867 68.1936C47.3867 66.5145 48.7419 65.1522 50.4121 65.1522C52.0823 65.1522 53.4375 66.5145 53.4375 68.1936Z" fill="currentColor"></path>
      <path fill-rule="evenodd" clip-rule="evenodd" d="M59.4869 82.7898C59.4869 84.4702 58.1331 85.8312 56.4629 85.8312C54.7913 85.8312 53.4375 84.4702 53.4375 82.7898C53.4375 81.1107 54.7913 79.7498 56.4629 79.7498C58.1331 79.7498 59.4869 81.1107 59.4869 82.7898Z" fill="currentColor"></path>
      <path fill-rule="evenodd" clip-rule="evenodd" d="M74.3548 68.1936C74.3548 69.8726 73.001 71.235 71.3294 71.235C69.6592 71.235 68.3054 69.8726 68.3054 68.1936C68.3054 66.5145 69.6592 65.1522 71.3294 65.1522C73.001 65.1522 74.3548 66.5145 74.3548 68.1936Z" fill="currentColor"></path>
      <path fill-rule="evenodd" clip-rule="evenodd" d="M79.1947 82.7898C79.1947 84.4702 77.8409 85.8312 76.1693 85.8312C74.4991 85.8312 73.1453 84.4702 73.1453 82.7898C73.1453 81.1107 74.4991 79.7498 76.1693 79.7498C77.8409 79.7498 79.1947 81.1107 79.1947 82.7898Z" fill="currentColor"></path>
      <path fill-rule="evenodd" clip-rule="evenodd" d="M34.4605 69.5123C34.4605 71.1913 33.1053 72.5537 31.4351 72.5537C29.7649 72.5537 28.4097 71.1913 28.4097 69.5123C28.4097 67.8333 29.7649 66.4709 31.4351 66.4709C33.1053 66.4709 34.4605 67.8333 34.4605 69.5123Z" fill="currentColor"></path>
      <path fill-rule="evenodd" clip-rule="evenodd" d="M40.5098 84.1085C40.5098 85.7876 39.156 87.15 37.4844 87.15C35.8142 87.15 34.4604 85.7876 34.4604 84.1085C34.4604 82.4295 35.8142 81.0685 37.4844 81.0685C39.156 81.0685 40.5098 82.4295 40.5098 84.1085Z" fill="currentColor"></path>
    </g>
    <defs>
      <clipPath id="clip0_0_1203">
        <rect width="100" height="100" fill="currentColor"></rect>
      </clipPath>
      <clipPath id="clip1_0_1203">
        <rect width="100" height="100" fill="currentColor"></rect>
      </clipPath>
    </defs>
  </symbol>
  <symbol fill="none" xmlns="http://www.w3.org/2000/svg" viewBox="0 0 100 100" id="code-85-86-colorful">
    <g clip-path="url(#clip0_0_249)">
      <rect opacity="0.0229128" x="0.5" y="0.5" width="99" height="99" stroke="#2B2B2B"></rect>
      <g clip-path="url(#clip1_0_249)">
        <path fill-rule="evenodd" clip-rule="evenodd" d="M63.3528 83.3371C63.3528 86.0767 61.1288 88.2983 58.3864 88.2983C55.6439 88.2983 53.422 86.0767 53.422 83.3371C53.422 80.5976 55.6439 78.376 58.3864 78.376C61.1288 78.376 63.3528 80.5976 63.3528 83.3371Z" fill="#C0EAF9"></path>
        <path fill-rule="evenodd" clip-rule="evenodd" d="M82.42 83.3371C82.42 86.0767 80.196 88.2983 77.4535 88.2983C74.7111 88.2983 72.4892 86.0767 72.4892 83.3371C72.4892 80.5976 74.7111 78.376 77.4535 78.376C80.196 78.376 82.42 80.5976 82.42 83.3371Z" fill="#C0EAF9"></path>
        <path fill-rule="evenodd" clip-rule="evenodd" d="M30.6254 74.933C27.8829 74.933 25.661 72.7114 25.661 69.9718C25.661 67.2322 27.8829 65.0106 30.6254 65.0106C33.3679 65.0106 35.5918 67.2322 35.5918 69.9718C35.5918 72.7114 33.3679 74.933 30.6254 74.933Z" fill="#C0EAF9"></path>
        <path fill-rule="evenodd" clip-rule="evenodd" d="M53.946 69.9718C53.946 72.7114 51.722 74.933 48.9795 74.933C46.237 74.933 44.0152 72.7114 44.0152 69.9718C44.0152 67.2322 46.237 65.0106 48.9795 65.0106C51.722 65.0106 53.946 67.2322 53.946 69.9718Z" fill="#C0EAF9"></path>
        <path fill-rule="evenodd" clip-rule="evenodd" d="M72.4883 69.9718C72.4883 72.7114 70.2644 74.933 67.5219 74.933C64.7794 74.933 62.5576 72.7114 62.5576 69.9718C62.5576 67.2322 64.7794 65.0106 67.5219 65.0106C70.2644 65.0106 72.4883 67.2322 72.4883 69.9718Z" fill="#C0EAF9"></path>
        <path fill-rule="evenodd" clip-rule="evenodd" d="M45.0255 83.3371C45.0255 86.0767 42.8016 88.2983 40.0591 88.2983C37.3166 88.2983 35.0948 86.0767 35.0948 83.3371C35.0948 80.5976 37.3166 78.376 40.0591 78.376C42.8016 78.376 45.0255 80.5976 45.0255 83.3371Z" fill="#C0EAF9"></path>
        <path fill-rule="evenodd" clip-rule="evenodd" d="M22.015 33.1403C15.391 33.1403 9.99979 38.5779 9.99979 45.2635C9.99979 51.9449 15.391 57.3845 22.015 57.3845H74.2552C82.5722 57.3845 89.3357 50.5575 89.3357 42.1661C89.3357 33.7748 82.5722 26.9477 74.2552 26.9477C72.708 26.9477 71.1692 27.189 69.6865 27.6612L68.7203 27.9711L68.3788 27.006C65.1865 17.949 56.653 11.8645 47.147 11.8645C35.5254 11.8645 25.8799 20.6511 24.7096 32.302L24.6013 33.3816L23.5351 33.2485C22.9437 33.1736 22.4606 33.1403 22.015 33.1403Z" fill="#EDF3F9"></path>
      </g>
    </g>
    <defs>
      <clipPath id="clip0_0_249">
        <rect width="100" height="100" fill="white"></rect>
      </clipPath>
      <clipPath id="clip1_0_249">
        <rect width="80" height="78" fill="white" transform="translate(10 11)"></rect>
      </clipPath>
    </defs>
  </symbol>
  <symbol fill="none" xmlns="http://www.w3.org/2000/svg" viewBox="0 0 100 100" id="code-95-96-99-colorful">
    <g clip-path="url(#clip0_0_218)">
      <rect opacity="0.0229128" x="0.5" y="0.5" width="99" height="99" stroke="#2B2B2B"></rect>
      <g clip-path="url(#clip1_0_218)">
        <path fill-rule="evenodd" clip-rule="evenodd" d="M62.9447 60.2432C62.9447 60.2432 60.2 67.7157 60.8936 70.5759C61.4681 72.9374 63.8638 74.3889 66.2383 73.8113C68.6191 73.2316 70.0745 70.8402 69.5021 68.4787C68.8085 65.6205 62.9447 60.2432 62.9447 60.2432Z" fill="#C0EAF9"></path>
        <path fill-rule="evenodd" clip-rule="evenodd" d="M79.9981 59.9265C79.9981 59.9265 77.2534 67.399 77.947 70.2571C78.5215 72.6208 80.9172 74.0722 83.2917 73.4946C85.6725 72.9149 87.1279 70.5236 86.5555 68.162C85.8619 65.3039 79.9981 59.9265 79.9981 59.9265Z" fill="#C0EAF9"></path>
        <path fill-rule="evenodd" clip-rule="evenodd" d="M14.3849 61.2008C14.3849 61.2008 11.6402 68.6733 12.3338 71.5314C12.9083 73.8951 15.3041 75.3465 17.6785 74.7689C20.0594 74.1892 21.5147 71.7978 20.9424 69.4363C20.2487 66.5782 14.3849 61.2008 14.3849 61.2008Z" fill="#C0EAF9"></path>
        <path fill-rule="evenodd" clip-rule="evenodd" d="M26.2075 77.4525C26.2075 77.4525 23.45 84.876 24.1394 87.7107C24.7075 90.0551 27.099 91.4917 29.4756 90.9141C31.8564 90.3344 33.316 87.96 32.7458 85.6156C32.0585 82.7787 26.2075 77.4525 26.2075 77.4525Z" fill="#C0EAF9"></path>
        <path fill-rule="evenodd" clip-rule="evenodd" d="M56.6876 76.4757C56.6876 76.4757 53.9302 83.8992 54.6195 86.7339C55.1876 89.0783 57.5791 90.5149 59.9557 89.9373C62.3366 89.3575 63.7961 86.9832 63.2259 84.6388C62.5387 81.8019 56.6876 76.4757 56.6876 76.4757Z" fill="#C0EAF9"></path>
        <path fill-rule="evenodd" clip-rule="evenodd" d="M74.7088 75.6429C74.7088 75.6429 71.9513 83.0664 72.6407 85.9011C73.2088 88.2456 75.6002 89.6821 77.9768 89.1045C80.3577 88.5248 81.8173 86.1505 81.2471 83.806C80.5598 80.9692 74.7088 75.6429 74.7088 75.6429Z" fill="#C0EAF9"></path>
        <path fill-rule="evenodd" clip-rule="evenodd" d="M28.3457 65.8844H42.3734L41.633 63.8234C40.2947 60.0978 39.0798 56.7217 38.6968 55.6646C38.0585 53.8998 38.033 52.5272 38.6266 51.7003C39.1117 51.0225 39.8819 50.8818 40.0606 50.8818H44.3074C46.9691 50.8818 48.5947 53.5396 49.1755 55.8138C49.3564 56.5235 49.567 57.3398 49.7968 58.2328C50.7223 61.822 51.9904 66.739 52.8713 70.5733C53.4947 73.2865 52.8798 74.4225 52.5862 74.7849C52.3138 75.1216 51.9351 75.2836 51.4266 75.2836H36.8287L41.9393 89.879C42.1755 90.5504 42.1393 90.9212 42.0968 91.0385C41.9032 91.0662 41.2074 90.9063 40.5798 90.0048C37.6074 85.7314 30.1159 74.6804 26.8457 69.6483C26.0542 68.4292 25.8032 67.4253 26.1393 66.82C26.4457 66.2701 27.3521 65.8844 28.3457 65.8844Z" fill="#F9C900"></path>
        <path fill-rule="evenodd" clip-rule="evenodd" d="M88.073 33.89C94.2006 33.89 99.1857 38.9498 99.1857 45.1734C99.1857 51.3926 94.2006 56.4524 88.073 56.4524H39.756C32.0666 56.4524 25.8091 50.0989 25.8091 42.2896C25.8091 34.4804 32.0666 28.1269 39.756 28.1269C41.1879 28.1269 42.6113 28.3507 43.9815 28.7919L44.8772 29.0796L45.1921 28.1823C48.1453 19.7528 56.0368 14.0898 64.8283 14.0898C75.5772 14.0898 84.4985 22.2657 85.5815 33.11L85.6815 34.1138L86.6687 33.9902C87.2134 33.922 87.6602 33.89 88.073 33.89Z" fill="#EDF3F9"></path>
        <path fill-rule="evenodd" clip-rule="evenodd" d="M12.2764 31.6774C5.50833 31.6774 -0.000183105 37.2488 -0.000183105 44.0989C-0.000183105 50.9448 5.50833 56.5182 12.2764 56.5182H65.653C74.1509 56.5182 81.0615 49.5232 81.0615 40.9253C81.0615 32.3275 74.1509 25.3324 65.653 25.3324C64.0722 25.3324 62.4998 25.5797 60.9849 26.0635L59.9977 26.381L59.6488 25.3921C56.3871 16.1122 47.6679 9.87805 37.9551 9.87805C26.0807 9.87805 16.2253 18.8808 15.0296 30.8185L14.919 31.9247L13.8296 31.7883C13.2253 31.7115 12.7317 31.6774 12.2764 31.6774Z" fill="#C8D0D6"></path>
      </g>
    </g>
    <defs>
      <clipPath id="clip0_0_218">
        <rect width="100" height="100" fill="white"></rect>
      </clipPath>
      <clipPath id="clip1_0_218">
        <rect width="100" height="83" fill="white" transform="translate(0 9)"></rect>
      </clipPath>
    </defs>
  </symbol>
  <symbol fill="none" xmlns="http://www.w3.org/2000/svg" viewBox="0 0 100 100" id="code-95-96-99">
    <g clip-path="url(#clip0_0_925)">
      <rect opacity="0.0229128" x="0.5" y="0.5" width="99" height="99" stroke="#2B2B2B"></rect>
      <path fill-rule="evenodd" clip-rule="evenodd" d="M20.7887 46.0435H14.3363C10.1305 46.0435 6.70755 42.5398 6.70755 38.2334C6.70755 33.9255 10.1305 30.4218 14.3363 30.4218C14.617 30.4218 14.9231 30.4436 15.3018 30.4912L16.5426 30.6491L16.6675 29.3809C17.4343 21.6415 23.7484 15.8057 31.357 15.8057C34.6605 15.8057 37.7786 16.9541 40.2951 18.9229C40.839 18.297 41.4083 17.7038 42.0099 17.1527C39.0207 14.7348 35.2768 13.3157 31.357 13.3157C22.8635 13.3157 15.8014 19.4345 14.3954 27.9318C14.3753 27.9318 14.3565 27.9318 14.3363 27.9318C8.78361 27.9318 4.26489 32.554 4.26489 38.2334C4.26489 43.9127 8.78361 48.5335 14.3363 48.5335H20.8451C20.7874 48.0178 20.7485 47.4967 20.7485 46.9633C20.7485 46.6531 20.7686 46.3483 20.7887 46.0435Z" fill="currentColor"></path>
      <path fill-rule="evenodd" clip-rule="evenodd" d="M80.9932 27.9577C79.9108 27.9577 78.8298 28.0761 77.773 28.3101C74.3944 20.3081 66.5118 14.9702 57.982 14.9702C47.3385 14.9702 38.4877 22.6389 36.7245 33.2887C36.7004 33.2887 36.6749 33.2887 36.6507 33.2887C29.6907 33.2887 24.0278 39.081 24.0278 46.2C24.0278 53.3189 29.6907 59.1085 36.6507 59.1085H80.9932C89.3874 59.1085 96.2171 52.1216 96.2171 43.5331C96.2171 34.9446 89.3874 27.9577 80.9932 27.9577ZM93.1554 43.5331C93.1554 50.4017 87.7007 55.9885 80.9932 55.9885H36.6507C31.3786 55.9885 27.0895 51.5977 27.0895 46.2C27.0895 40.8009 31.3786 36.4087 36.6507 36.4087C37.0025 36.4087 37.3866 36.4373 37.8593 36.4958L39.4156 36.6944L39.5714 35.1052C40.5329 25.4051 48.4477 18.0902 57.982 18.0902C65.7826 18.0902 72.7829 23.1559 75.4029 30.6967L75.8984 32.1199L77.3097 31.6614C78.5075 31.275 79.747 31.079 80.9932 31.079C87.7007 31.079 93.1554 36.6659 93.1554 43.5331Z" fill="currentColor"></path>
      <path fill-rule="evenodd" clip-rule="evenodd" d="M36.8643 67.6997C38.1534 70.0836 39.4426 72.4688 40.7331 74.854C41.6301 76.514 44.1359 75.0323 43.2375 73.3696C41.9483 70.9857 40.6592 68.6005 39.3687 66.2152C38.4717 64.5566 35.9659 66.0384 36.8643 67.6997Z" fill="currentColor"></path>
      <path fill-rule="evenodd" clip-rule="evenodd" d="M80.9422 67.6997C82.2313 70.0836 83.5218 72.4688 84.8109 74.854C85.708 76.514 88.2151 75.0323 87.3167 73.3696C86.0262 70.9857 84.7371 68.6005 83.4479 66.2152C82.5496 64.5566 80.0438 66.0384 80.9422 67.6997Z" fill="currentColor"></path>
      <path fill-rule="evenodd" clip-rule="evenodd" d="M77.7044 75.5548C78.9935 77.94 80.2827 80.3253 81.5731 82.7105C82.4702 84.3691 84.9759 82.8874 84.0776 81.226C82.7884 78.8408 81.4993 76.4569 80.2088 74.0717C79.3118 72.4117 76.806 73.8934 77.7044 75.5548Z" fill="currentColor"></path>
      <path fill-rule="evenodd" clip-rule="evenodd" d="M14.9353 58.1819C16.2257 60.5672 17.5149 62.9524 18.804 65.3376C19.7011 66.9963 22.2082 65.5145 21.3098 63.8531C20.0207 61.4679 18.7302 59.084 17.441 56.6988C16.544 55.0388 14.0369 56.5206 14.9353 58.1819Z" fill="currentColor"></path>
      <path fill-rule="evenodd" clip-rule="evenodd" d="M26.7471 66.633C28.0362 69.0182 29.3254 71.4021 30.6159 73.7873C31.5129 75.4473 34.0187 73.9655 33.1203 72.3042C31.8312 69.9189 30.542 67.5337 29.2515 65.1485C28.3545 63.4885 25.8487 64.9716 26.7471 66.633Z" fill="currentColor"></path>
      <path fill-rule="evenodd" clip-rule="evenodd" d="M23.3684 76.1494C24.6576 78.5346 25.9467 80.9199 27.2372 83.3051C28.1342 84.9637 30.6413 83.482 29.7416 81.8206C28.4525 79.4354 27.1633 77.0502 25.8742 74.6663C24.9758 73.0063 22.4701 74.488 23.3684 76.1494Z" fill="currentColor"></path>
      <path fill-rule="evenodd" clip-rule="evenodd" d="M36.8643 77.7903C38.1534 80.1742 39.4426 82.5594 40.7331 84.9447C41.6301 86.6047 44.1359 85.1229 43.2375 83.4602C41.9483 81.0763 40.6592 78.6911 39.3687 76.3059C38.4717 74.6459 35.9659 76.129 36.8643 77.7903Z" fill="currentColor"></path>
      <path fill-rule="evenodd" clip-rule="evenodd" d="M64.856 58.963L64.5471 59.1085H64.9245L64.856 58.963Z" fill="currentColor"></path>
      <path fill-rule="evenodd" clip-rule="evenodd" d="M50.8582 58.831L50.4258 59.1085H51.0328L50.8582 58.831Z" fill="currentColor"></path>
      <path fill-rule="evenodd" clip-rule="evenodd" d="M70.9728 77.6951H66.2996C65.6806 77.6951 65.1058 78.0067 64.7621 78.5306C64.4196 79.053 64.3552 79.7116 64.5942 80.2912L68.9813 90.9234L51.1173 71.7286H55.589C56.2631 71.7286 56.8849 71.3558 57.2085 70.7571C57.5335 70.1571 57.5106 69.4278 57.1481 68.8495L52.7314 61.8135H49.9799L54.7269 69.3761H50.0229C49.2843 69.3761 48.6169 69.821 48.3255 70.5068C48.0328 71.1939 48.1711 71.9899 48.6773 72.5341L69.0726 94.4489C69.4379 94.8421 69.92 95.0448 70.4115 95.0448C70.7579 95.0448 71.1084 94.9441 71.424 94.736C72.1854 94.2352 72.4741 93.2923 72.1236 92.4419L67.01 80.0477H71.7167C72.3532 80.0477 72.9374 79.7211 73.2785 79.1769C73.6182 78.6326 73.6612 77.9591 73.3899 77.3781L66.1774 61.8135H63.6139L70.9728 77.6951Z" fill="currentColor"></path>
    </g>
    <defs>
      <clipPath id="clip0_0_925">
        <rect width="100" height="100" fill="currentColor"></rect>
      </clipPath>
    </defs>
  </symbol>
  <symbol fill="none" xmlns="http://www.w3.org/2000/svg" viewBox="0 0 100 100" id="code-0">
    <g clip-path="url(#clip0_0_942)">
      <rect opacity="0.0229128" x="0.5" y="0.5" width="99" height="99" stroke="#2B2B2B"></rect>
      <path fill-rule="evenodd" clip-rule="evenodd" d="M74.9506 74.8615L64.0325 64.7978C63.355 64.174 63.321 63.1179 63.9597 62.4529C64.5985 61.7895 65.677 61.7578 66.3562 62.3832L77.2743 72.4453C77.9518 73.0707 77.9842 74.1252 77.3454 74.7902C76.7083 75.4552 75.6298 75.4869 74.9506 74.8615Z" fill="currentColor"></path>
      <path fill-rule="evenodd" clip-rule="evenodd" d="M33.2381 36.6652L22.3199 26.6031C21.6408 25.9777 21.6085 24.9232 22.2472 24.2582C22.8859 23.5932 23.9628 23.5615 24.642 24.1869L35.5601 34.2506C36.2393 34.876 36.2716 35.9305 35.6329 36.5955C34.9942 37.2589 33.9156 37.2906 33.2381 36.6652Z" fill="currentColor"></path>
      <path fill-rule="evenodd" clip-rule="evenodd" d="M24.511 74.7364L34.5317 63.8146C35.1542 63.1369 36.2312 63.0799 36.9249 63.6895C37.6186 64.2991 37.6752 65.3536 37.0526 66.0328L27.0319 76.9547C26.4094 77.6323 25.3325 77.6893 24.6404 77.0797C23.9467 76.4702 23.8885 75.4157 24.511 74.7364Z" fill="currentColor"></path>
      <path fill-rule="evenodd" clip-rule="evenodd" d="M62.54 33.0156L72.5607 22.0938C73.1832 21.4161 74.2601 21.3591 74.9539 21.9687C75.6459 22.5783 75.7041 23.6328 75.0816 24.312L65.0609 35.2338C64.4384 35.9115 63.3614 35.9685 62.6677 35.3589C61.9756 34.7493 61.9174 33.6948 62.54 33.0156Z" fill="currentColor"></path>
      <path fill-rule="evenodd" clip-rule="evenodd" d="M48.8277 84.9568L48.6563 70.2762C48.6466 69.3642 49.4002 68.6089 50.3316 68.5994C51.263 68.5883 52.0343 69.3262 52.0456 70.2382L52.217 84.9188C52.2267 85.8324 51.4732 86.5861 50.5418 86.5972C49.6104 86.6083 48.8391 85.8704 48.8277 84.9568Z" fill="currentColor"></path>
      <path fill-rule="evenodd" clip-rule="evenodd" d="M47.9901 29.043L47.8187 14.3623C47.8074 13.4487 48.5609 12.6951 49.4923 12.684C50.4238 12.6729 51.1951 13.4107 51.2064 14.3243L51.3778 29.005C51.3891 29.917 50.634 30.6722 49.7026 30.6817C48.7712 30.6928 47.9998 29.955 47.9901 29.043Z" fill="currentColor"></path>
      <path fill-rule="evenodd" clip-rule="evenodd" d="M13.9695 47.9591L28.9642 48.0066C29.8956 48.0098 30.6556 48.7587 30.6523 49.6707C30.6507 50.5827 29.8859 51.3268 28.9528 51.3237L13.9598 51.2778C13.0268 51.2746 12.2668 50.5257 12.27 49.6137C12.2733 48.7001 13.0381 47.9559 13.9695 47.9591Z" fill="currentColor"></path>
      <path fill-rule="evenodd" clip-rule="evenodd" d="M71.0811 47.9575L86.0757 48.0034C87.0071 48.0066 87.7671 48.7555 87.7639 49.6675C87.7607 50.5811 86.9958 51.3252 86.0644 51.3221L71.0698 51.2746C70.1384 51.2714 69.3784 50.5225 69.3816 49.6105C69.3848 48.6985 70.1497 47.9543 71.0811 47.9575Z" fill="currentColor"></path>
      <path fill-rule="evenodd" clip-rule="evenodd" d="M49.5974 34.2585C40.9366 34.2585 33.8896 41.1587 33.8896 49.639C33.8896 58.1209 40.9366 65.0211 49.5974 65.0211C58.2598 65.0211 65.3068 58.1209 65.3068 49.639C65.3068 41.1587 58.2598 34.2585 49.5974 34.2585ZM62.097 49.639C62.097 56.3871 56.4891 61.8781 49.5974 61.8781C42.7056 61.8781 37.0994 56.3871 37.0994 49.639C37.0994 42.8908 42.7056 37.3998 49.5974 37.3998C56.4891 37.3998 62.097 42.8908 62.097 49.639Z" fill="currentColor"></path>
    </g>
    <defs>
      <clipPath id="clip0_0_942">
        <rect width="100" height="100" fill="white"></rect>
      </clipPath>
    </defs>
  </symbol>
</svg>