<svg width="0" height="0" class="hidden">
  <symbol xmlns="http://www.w3.org/2000/svg" xmlns:xlink="http://www.w3.org/1999/xlink" aria-hidden="true" role="img" preserveAspectRatio="xMidYMid meet" viewBox="0 0 128 128" id="sun-behind-small-cloud-svgrepo-com">
    <path d="M33.58 45.38c-8.27 10.63-8.13 29.53 2.44 38.89c12.01 10.63 28.9 10.52 39.53.74c12.75-11.72 12.01-31.24.75-42.29c-11.32-11.11-31.56-11.69-42.72 2.66z" fill="#fcc11a"></path>
    <path d="M46.87 41.73c-3.27-1.45-6.85 2.49-8.41 5.19c-1.56 2.7-3.01 8 .31 9.35c3.32 1.35 5.71-.93 8.1-4.88s3.74-8 0-9.66z" fill="#fee269"></path>
    <path d="M55.39 26.91c-.79 1.49-.52 2.62 1.05 3c1.57.37 11.39 1.97 12.21 2.02c1.2.07 1.65-.82 1.5-1.87c-.15-1.05-2.55-15.74-2.77-17.08s-1.65-2.7-3-.9c-1.35 1.79-8.39 13.71-8.99 14.83z" fill="#ffa722"></path>
    <path d="M79.23 37.03c-1.48.64-1.33 1.58-.38 2.68s7.56 9.12 8.14 9.66c.59.54 1.5.59 2.14-.39s8.52-15.03 9.11-15.92c.97-1.46.15-2.8-1.52-2.17c-1.26.49-16.56 5.74-17.49 6.14z" fill="#ffa722"></path>
    <path d="M80.19 86.84c1.19-.64 2.25-.15 2.55 1.2c.3 1.35 3.6 15.13 4.12 17.68c.26 1.28-1.2 2.32-2.4 1.57c-1.2-.75-14.22-9.83-15.06-10.56c-1.2-1.05-.37-2.14.22-2.7c1.2-1.12 9.44-6.59 10.57-7.19z" fill="#ffa722"></path>
    <path d="M43.93 94.41c-1.51-.14-1.95 1.2-1.72 2.4c.22 1.2 2.47 16.4 2.62 17.53c.22 1.65 1.95 2.32 3.07.67c1.12-1.65 8.82-13.98 9.44-15.13c1.12-2.1.3-2.55-.82-3.07c-1.13-.53-11.02-2.25-12.59-2.4z" fill="#ffa722"></path>
    <path d="M22.35 76.95c1.05-1.72 2.4-1.27 3.37.37c.67 1.13 6.29 8.69 6.82 9.51c.52.82.75 2.4-.9 2.77c-1.65.37-15.06 3.9-17.16 4.27s-3.3-1.27-1.95-3.07c.79-1.04 9.23-12.87 9.82-13.85z" fill="#ffa722"></path>
    <path d="M19.5 63.92c1.92.85 2.82.54 3.22-.82c.52-1.8 2.1-10.04 2.17-11.91c.05-1.22-.45-2.4-2.32-2.1S7.22 51.26 5.5 51.86c-2 .7-1.86 2.9-.52 3.6c1.56.82 13.18 7.86 14.52 8.46z" fill="#ffa722"></path>
    <path d="M42.8 32.45c1.08-.86.75-2.1-.22-2.77c-.97-.67-13.01-9.38-14.53-10.56c-1.35-1.05-3-.67-2.55 1.72c.32 1.72 4.16 16.79 4.42 17.83c.3 1.2 1.2 1.8 2.25 1.05s9.51-6.37 10.63-7.27z" fill="#ffa722"></path>
    <path d="M112.86 68.59c.01-.65 2.21-23.08-17.49-27.23c-19.04-4.02-24.03 13.82-24.03 13.82s-6.75-.83-11.7 2.93c-4.95 3.77-5.23 9.98-5.23 9.98s-7.96-.3-11.71 4.13c-3.39 4-2.26 7.61-2.26 7.61l21.97 5.57l55.53-1.49l6.37-3.86s.36-5.05-2.93-8.25c-4.54-4.4-8.52-3.21-8.52-3.21z" fill="#ffffff"></path>
    <path d="M61.29 77.3s-6.09 2.68-13.63 2.02c-4.48-.39-7.34-1.72-7.34-1.72s-.77 5.18 3.3 7.73c3.05 1.91 5.96 2.2 11.38 2.18s54.74-.12 58.29-.16c3.56-.04 6.94-.67 8.67-2.28c2.18-2.03 2.34-5.02 2.34-5.02s-3.42 1.02-8.18.4c-4.74-.62-7.5-2.74-7.5-2.74s-3.41 2.91-21.04 3.23c-19.02.35-26.29-3.64-26.29-3.64z" fill="#e2ebee"></path>
  </symbol>
  <symbol xmlns="http://www.w3.org/2000/svg" xmlns:xlink="http://www.w3.org/1999/xlink" aria-hidden="true" role="img" preserveAspectRatio="xMidYMid meet" viewBox="0 0 128 128" id="cloud-svgrepo-com">
    <path d="M23.45 62.3c.72-.72-1.27-9.29 7.6-15.91s14.92-2.67 15.77-2.96c.84-.28 4.79-17.6 21.4-22.1s33.93 3.94 38.01 18.02c3.73 12.87.84 21.54 1.27 22.1c.42.56 8.45.28 13.09 7.74s2.96 12.11 2.96 12.11l-29.56 9.15h-47.3S5.02 79.47 4.6 77.5c-.42-1.97.53-8.37 7.32-12.25c5.9-3.37 10.26-1.68 11.53-2.95z" fill="#e4eaee"></path>
    <path d="M35.16 92.84s-15.78 3.3-26.45-4.96C2.29 82.9 4.63 74.83 4.63 74.83s4.6 4.65 13.89 5.91c9.29 1.27 19.71.84 19.71.84s2.6 4.44 12.39 6.48c12.27 2.55 18.74-3.73 18.74-3.73s3.36 4.02 15.19 4.3c11.83.28 18.46-7.98 19.57-8.17c.56-.09 3.82 2.87 10.28 1.83c6.15-.99 9.39-3.66 9.39-3.66s.89 6.62-5.3 10.7c-4.83 3.18-13.23 3.52-13.23 3.52s-1.28 4.91-7.05 8.48c-5.36 3.33-14.6 4.44-21.44 2.4c-8.59-2.56-10.72-6.47-10.72-6.47s-6.4 3.75-16.4 2.48c-9.45-1.18-14.49-6.9-14.49-6.9z" fill="#e2ebee"></path>
  </symbol>
  <symbol xmlns="http://www.w3.org/2000/svg" xmlns:xlink="http://www.w3.org/1999/xlink" aria-hidden="true" role="img" preserveAspectRatio="xMidYMid meet" viewBox="0 0 128 128" id="sun-behind-rain-cloud-svgrepo-com">
    <path d="M38.29 29.14c-6.01 7.73-5.91 21.47 1.78 28.27c8.73 7.72 21.01 7.65 28.74.54c9.26-8.52 8.73-22.71.54-30.74c-8.24-8.08-22.95-8.5-31.06 1.93z" fill="#fcc11a"></path>
    <path d="M47.95 26.49c-2.38-1.06-4.98 1.81-6.12 3.78c-1.13 1.96-2.19 5.81.23 6.8c2.42.98 4.15-.68 5.89-3.55c1.74-2.88 2.72-5.82 0-7.03z" fill="#fee269"></path>
    <path d="M54.14 15.71c-.58 1.08-.38 1.91.76 2.18c1.14.27 8.28 1.43 8.88 1.47c.87.05 1.2-.6 1.09-1.36c-.11-.76-1.85-11.44-2.02-12.42c-.16-.98-1.2-1.96-2.18-.65s-6.09 9.96-6.53 10.78z" fill="#ffa722"></path>
    <path d="M72.6 23.12c-1.12.35-1.09 1.03-.49 1.91c.6.87 4.74 7.19 5.12 7.62c.38.44 1.03.54 1.58-.11s7.35-10.19 7.84-10.78c.82-.98.33-2.02-.93-1.69c-.94.25-12.41 2.83-13.12 3.05z" fill="#ffa722"></path>
    <path d="M30.12 52.09c.76-1.25 1.74-.93 2.45.27c.48.82 4.57 6.32 4.96 6.92c.38.6.54 1.74-.65 2.02c-1.2.27-10.95 2.83-12.47 3.1s-2.4-.93-1.42-2.23c.57-.77 6.7-9.37 7.13-10.08z" fill="#ffa722"></path>
    <path d="M28.06 42.61c1.39.62 2.05.4 2.34-.6c.38-1.31 1.52-7.3 1.58-8.66c.04-.89-.33-1.74-1.69-1.52s-11.16 1.58-12.42 2.02c-1.45.51-1.35 2.11-.38 2.61c1.14.6 9.59 5.72 10.57 6.15z" fill="#ffa722"></path>
    <path d="M44.99 19.74c.78-.63.54-1.52-.16-2.02c-.71-.49-9.46-6.82-10.57-7.68c-.98-.76-2.18-.49-1.85 1.25c.23 1.25 3.02 12.21 3.21 12.96c.22.87.87 1.31 1.63.76c.77-.53 6.93-4.62 7.74-5.27z" fill="#ffa722"></path>
    <path d="M99.22 65.16s3.54-23.47-17.6-29.03C58.67 30.09 53.29 51.4 53.29 51.4s-6.68-1.82-12.85 3.14c-4.83 3.88-5.66 10.72-5.66 10.72s-9.41-.32-13.45 6.17c-3.84 6.17 0 10.22 0 10.22l55.54-2.23l34.19.2s2.47-6.42-2.28-10.87c-4.76-4.44-9.56-3.59-9.56-3.59z" fill="#ffffff"></path>
    <path d="M61.29 67.49s4.25 4.25 15.38 3.54s16.99-4.65 18.31-5.26c1.32-.61 2.83-2.02 3.34-1.01c.51 1.01-.61 3.84-2.12 5.87c-1.52 2.02-2.37 3.25-2.63 4.15c-.2.71 3.14 1.72 9.41 2.02c5.36.26 8.74-.82 8.74-.82s.15 3.37-1.16 6c-1.22 2.43-2.49 3.22-4.51 3.63c-1.04.21-20.67.2-37.56.6c-16.89.4-38.95 1.11-42.69-.1s-4.66-3.58-5.14-4.5c-.84-1.58-1.02-4.05-1.02-4.05s4.14 2.08 10.01 1.27s9-3.84 9.81-4.15c.81-.3 4.65 1.62 10.72.1c8.48-2.13 11.11-7.29 11.11-7.29z" fill="#b9ced3"></path>
    <path d="M47.26 90.91c-1.32-.48-7.05 3.63-9.11 9.11c-3.04 8.09 7.79 10.79 10.07 3c.87-2.96.86-11.45-.96-12.11z" fill="#4fc2f7"></path>
    <path d="M90.07 96.81c-1.17-.52-5.82 3.02-7.93 5.99c-2.02 2.84-3.82 7.64 1.14 10.1c5.41 2.67 7.87-3.14 8.1-7.36c.21-3.82-.28-8.27-1.31-8.73z" fill="#4fc2f7"></path>
    <path d="M66.52 106.4c-1.47-.35-7.11 4.23-9.13 8.5c-4.05 8.56 8.39 11.58 9.93 3.37c.98-5.21.4-11.59-.8-11.87z" fill="#4fc2f7"></path>
    <path d="M61.24 113.05c-1.17-.47-3.45 2.4-3.2 4.95c.26 2.55 2.36 2.78 3.36 1.37c1.34-1.87 1-5.86-.16-6.32z" fill="#afe6f8"></path>
    <path d="M41.68 97.56c-1.11-.52-3.01 2.52-2.99 4.09c.05 3.2 2.41 3.41 3.51 1.83c1.1-1.57 1.05-5.18-.52-5.92z" fill="#afe6f8"></path>
    <path d="M84.83 103.77c-1.32-.63-3.59 2.28-3.42 4.39c.3 3.64 3.19 3.42 4.16 1.43s.45-5.25-.74-5.82z" fill="#afe6f8"></path>
  </symbol>
  <symbol xmlns="http://www.w3.org/2000/svg" xmlns:xlink="http://www.w3.org/1999/xlink" aria-hidden="true" role="img" preserveAspectRatio="xMidYMid meet" viewBox="0 0 128 128" id="cloud-with-lightning-and-rain-svgrepo-com">
    <path d="M78 67.82l-22.83 3.97s-7.6 19.36-8.07 20.67s-.45 3.38 1.62 3.38c2.63 0 15.98-.07 15.98-.07s-3.24 15.63-3.43 17.03s1.31 2.63 2.63 1.22s19.51-24.79 20.3-25.93c1.41-2.04.05-3.92-1.55-4.01c-1.6-.09-12.32.14-12.32.14L78 67.82z" fill="#feca18"></path>
    <path d="M71.92 70.54s-5.09 11.26-5.28 11.9c-.56 1.9 1.9 2.67 2.6 1.13c.7-1.55 6.76-14.08 6.76-14.08l-4.08 1.05z" fill="#fdb900"></path>
    <path d="M49.99 92.17c1.34-.04 13.1-.07 14.08-.14c1.83-.14 2.11 2.39 0 2.39c-2.19 0-13.73.04-14.43.07c-1.62.08-1.84-2.25.35-2.32z" fill="#fdb900"></path>
    <path d="M59.42 69.01s-6 15.06-6.34 16.19c-1.41 4.72 3.66 4.58 5 1.9c.66-1.33 7.11-14.99 7.39-17.46c.28-2.46-6.05-.63-6.05-.63z" fill="#ffe36a"></path>
    <path d="M61.01 86.57c-.86-.59-1.9-.07-2.53.92c-.63.99-1.55 2.6-.14 3.45c1.27.76 2.39-.77 2.89-1.48c.49-.71 1.12-1.98-.22-2.89z" fill="#ffe36a"></path>
    <path d="M71.34 89.8c-2.29-.49-3.03 1.41-3.52 3.66c-.49 2.25-2.33 9.53-2.67 11.33c-.49 2.53 1.83 2.89 2.82.56c.74-1.74 3.95-9.59 4.36-10.84c.63-1.89 1.33-4.21-.99-4.71z" fill="#ffe36a"></path>
    <path d="M107.92 46.26s2.6-34.98-27.31-39.42C53.72 2.85 48.44 28.38 48.44 28.38s-10.16-2.37-17.46 4.15c-7.25 6.48-6.69 14.15-6.69 14.15S6.41 43.86 4.58 59.21C2.87 73.55 24.01 69.98 24.01 69.98l100.38-7.39s2.38-7.54-5.21-13.23c-4.51-3.39-11.26-3.1-11.26-3.1z" fill="#e4eaee"></path>
    <radialGradient id="IconifyId17ecdb2904d178eab6090" cx="65.811" cy="75.277" r="29.434" fx="52.634" fy="75.403" gradientTransform="matrix(.0288 -.9996 1.4975 .0432 -48.813 137.809)" gradientUnits="userSpaceOnUse">
      <stop offset=".193" stop-color="#ffe366"></stop>
      <stop offset=".331" stop-color="#eddd82"></stop>
      <stop offset=".571" stop-color="#d0d4ad"></stop>
      <stop offset=".759" stop-color="#bfcfc7"></stop>
      <stop offset=".87" stop-color="#b8cdd1"></stop>
    </radialGradient>
    <path d="M53.81 54.19c.84-.28 5.63 3.81 19.43 3.94c18.96.19 33.32-10.98 33.32-10.98s.48 3.4-1.03 5.82c-1.88 3-4.79 3.57-4.79 3.57s5.26 3.66 12.48 3.1c6.51-.51 11.22-2.72 11.22-2.72s.63 3.21.28 6.34c-.7 6.24-4.36 8.78-8.4 9.24c-2.97.34-28.34.46-38.76.56c-9.39.09-57.24 1.29-62.13.75c-5.07-.56-8.92-3.61-10.32-7.98c-1.07-3.31-.56-5.44-.56-5.44s9.32 2.47 14.55 1.88c6.57-.75 10.98-4.88 10.98-4.88s3.94 2.25 12.67 1.5c7.51-.66 11.06-4.7 11.06-4.7z" fill="url(#IconifyId17ecdb2904d178eab6090)"></path>
    <path d="M103.9 74.2c-1.02-.57-4.65 2.82-6.69 4.86c-1.25 1.25-5.23 4.52-5.77 7.67c-1.34 7.74 7.53 9.5 11.05 5.91c2.66-2.71 2.18-8 2.18-9.78c.01-2.47.5-7.96-.77-8.66z" fill="#52c0ee"></path>
    <path d="M31.02 78.36c-.97-.56-4.45 2.72-6.41 4.71c-1.2 1.21-5.01 4.38-5.55 7.46c-1.32 7.55 7.13 9.32 10.51 5.84c2.55-2.63 2.13-7.8 2.14-9.54c.01-2.41.51-7.77-.69-8.47z" fill="#52c0ee"></path>
    <path d="M47.15 100.74c-1.09-.41-4.76 2.93-6.8 4.97c-1.25 1.25-4.95 4.45-5.49 7.6c-1.34 7.74 7.25 9.57 10.77 5.98c2.66-2.71 2.22-8 2.18-9.78c-.1-4.64.09-8.49-.66-8.77z" fill="#52c0ee"></path>
    <path d="M97.78 84.22c-1.4-.73-3.1-.42-4.18 1.83c-1.08 2.25-.19 4.04.94 4.55c1.3.6 2.91.05 3.99-1.78s.42-3.99-.75-4.6z" fill="#b2e6fe"></path>
    <path d="M40.01 110.93c-1.44-.5-3.02.03-3.74 2.34c-.72 2.31.39 3.89 1.54 4.23c1.33.39 2.79-.36 3.57-2.27c.77-1.91-.17-3.88-1.37-4.3z" fill="#b2e6fe"></path>
    <path d="M24.07 87.97c-1.52-.42-3.12.23-3.7 2.66c-.58 2.43.66 3.99 1.87 4.25c1.4.31 2.85-.56 3.53-2.58c.67-2-.42-3.98-1.7-4.33z" fill="#b2e6fe"></path>
  </symbol>
  <symbol xmlns="http://www.w3.org/2000/svg" xmlns:xlink="http://www.w3.org/1999/xlink" aria-hidden="true" role="img" preserveAspectRatio="xMidYMid meet" viewBox="0 0 128 128" id="cloud-with-rain-svgrepo-com">
    <path d="M107.62 46.29s1.72-32.32-23.89-38.72C54.12.17 48.29 28.49 48.29 28.49s-11.55-2.19-18.74 5.62c-6.03 6.55-5.46 12.96-5.46 12.96s-7.96-1.72-14.21 3.75s-5.31 10.61-5.31 10.61l18.58 7.18s93.83.47 94.3.16c.47-.31 6.25-9.37 6.25-9.37s-.94-7.81-6.4-10.93c-5.47-3.12-9.68-2.18-9.68-2.18z" fill="#ffffff"></path>
    <path d="M14.25 73.45c4.68.16 35.29.78 53.86.62s46.81.14 50.73-1.71c3.07-1.45 4.9-3.85 5.19-7.21c.28-3.21-.34-5.75-.34-5.75s-4.37 3.16-12.65 3.28c-5.15.07-15.61-.78-13.58-2.65c.57-.53 8.66-6.66 8.27-12.33c-.09-1.34-7.34 5.31-14.21 8.12c-6.87 2.81-13.39 4.98-22.47 4.4c-7.65-.5-10.97-3.61-10.97-3.61s-3.69 4.33-14.78 5.26c-11.09.94-13.48-3.23-13.48-3.23s-5.37 4.06-14.39 3.94c-9-.14-10.77-3.38-10.77-3.38s-.85 5.77 1.03 9.14c1.92 3.43 5.41 5.01 8.56 5.11z" fill="#b9ced2"></path>
    <path d="M69.99 81.57c-1.71-.6-7.81 4.23-10.56 9c-2.76 4.79-.96 8.29 1.99 9.73c3.32 1.62 8.1.62 9.46-4.1c1.34-4.67.95-13.98-.89-14.63z" fill="#4fc4f8"></path>
    <path d="M37.66 79.19c-1.55-.55-6.58 4.12-8.84 6.64c-3.03 3.39-5.37 9.71.38 12.27c5.79 2.57 9.55-1.64 9.84-7.46c.28-5.42-.1-10.99-1.38-11.45z" fill="#4fc4f8"></path>
    <path d="M49.87 101.65c-1.65-.89-8.58 5.26-10.79 8.93c-2.2 3.67-2.06 8.38 2.44 10.31s8.47-.54 9.3-6.97c.58-4.56.64-11.41-.95-12.27z" fill="#4fc4f8"></path>
    <path d="M83.38 102.18c-1.19-.67-9.43 5.69-11.28 10.32c-3.67 9.19 8.87 13.29 11.72 4.65c1.66-5.04 1.03-14.14-.44-14.97z" fill="#4fc4f8"></path>
    <path d="M103.87 82.37c-1.63-1-8.48 4.64-10.76 8.88c-2.88 5.36-.64 9.4 2.5 10.68c3.26 1.32 7.45.05 8.87-4.78c2.05-6.96.97-13.8-.61-14.78z" fill="#4fc4f8"></path>
    <path d="M96.4 91.09c-1.08.13-2.42 1.67-2.63 4.3s1.45 3.96 3.13 3.29c1.58-.63 1.84-2.88 1.84-4.3s-.67-3.5-2.34-3.29z" fill="#aee6fd"></path>
    <path d="M63 90.26c-1.14-.32-3.26 1.44-3.63 4.29c-.29 2.2.56 3.53 2.27 3.66c2.38.18 3.13-2.75 3.07-4.54c-.04-1.02-.22-2.99-1.71-3.41z" fill="#aee6fd"></path>
    <path d="M42.45 109.79c-1.06-.08-2.84 1.7-2.84 4.47s1.44 3.97 3.14 3.6c1.7-.38 2.04-3.63 1.93-4.92c-.11-1.29-.66-3.03-2.23-3.15z" fill="#aee6fd"></path>
    <path d="M30.91 88.44c-1.43-.41-3.26 1.4-3.48 3.44c-.23 2.04.72 3.52 2.23 3.75c1.51.23 2.8-1.59 2.95-3.71c.16-2.12-.37-3.11-1.7-3.48z" fill="#aee6fd"></path>
    <path d="M76.4 110.97c-1.32-.11-3.21 1.84-3.16 4.79s1.58 3.45 2.59 3.51c1.45.09 2.46-1.62 2.59-4.3c.11-2.25-.4-3.87-2.02-4z" fill="#aee6fd"></path>
  </symbol>
  <symbol xmlns="http://www.w3.org/2000/svg" xmlns:xlink="http://www.w3.org/1999/xlink" aria-hidden="true" role="img" preserveAspectRatio="xMidYMid meet" viewBox="0 0 128 128" id="sun-behind-small-cloud-svgrepo-com(1)">
    <path d="M33.58 45.38c-8.27 10.63-8.13 29.53 2.44 38.89c12.01 10.63 28.9 10.52 39.53.74c12.75-11.72 12.01-31.24.75-42.29c-11.32-11.11-31.56-11.69-42.72 2.66z" fill="#fcc11a"></path>
    <path d="M46.87 41.73c-3.27-1.45-6.85 2.49-8.41 5.19c-1.56 2.7-3.01 8 .31 9.35c3.32 1.35 5.71-.93 8.1-4.88s3.74-8 0-9.66z" fill="#fee269"></path>
    <path d="M55.39 26.91c-.79 1.49-.52 2.62 1.05 3c1.57.37 11.39 1.97 12.21 2.02c1.2.07 1.65-.82 1.5-1.87c-.15-1.05-2.55-15.74-2.77-17.08s-1.65-2.7-3-.9c-1.35 1.79-8.39 13.71-8.99 14.83z" fill="#ffa722"></path>
    <path d="M79.23 37.03c-1.48.64-1.33 1.58-.38 2.68s7.56 9.12 8.14 9.66c.59.54 1.5.59 2.14-.39s8.52-15.03 9.11-15.92c.97-1.46.15-2.8-1.52-2.17c-1.26.49-16.56 5.74-17.49 6.14z" fill="#ffa722"></path>
    <path d="M80.19 86.84c1.19-.64 2.25-.15 2.55 1.2c.3 1.35 3.6 15.13 4.12 17.68c.26 1.28-1.2 2.32-2.4 1.57c-1.2-.75-14.22-9.83-15.06-10.56c-1.2-1.05-.37-2.14.22-2.7c1.2-1.12 9.44-6.59 10.57-7.19z" fill="#ffa722"></path>
    <path d="M43.93 94.41c-1.51-.14-1.95 1.2-1.72 2.4c.22 1.2 2.47 16.4 2.62 17.53c.22 1.65 1.95 2.32 3.07.67c1.12-1.65 8.82-13.98 9.44-15.13c1.12-2.1.3-2.55-.82-3.07c-1.13-.53-11.02-2.25-12.59-2.4z" fill="#ffa722"></path>
    <path d="M22.35 76.95c1.05-1.72 2.4-1.27 3.37.37c.67 1.13 6.29 8.69 6.82 9.51c.52.82.75 2.4-.9 2.77c-1.65.37-15.06 3.9-17.16 4.27s-3.3-1.27-1.95-3.07c.79-1.04 9.23-12.87 9.82-13.85z" fill="#ffa722"></path>
    <path d="M19.5 63.92c1.92.85 2.82.54 3.22-.82c.52-1.8 2.1-10.04 2.17-11.91c.05-1.22-.45-2.4-2.32-2.1S7.22 51.26 5.5 51.86c-2 .7-1.86 2.9-.52 3.6c1.56.82 13.18 7.86 14.52 8.46z" fill="#ffa722"></path>
    <path d="M42.8 32.45c1.08-.86.75-2.1-.22-2.77c-.97-.67-13.01-9.38-14.53-10.56c-1.35-1.05-3-.67-2.55 1.72c.32 1.72 4.16 16.79 4.42 17.83c.3 1.2 1.2 1.8 2.25 1.05s9.51-6.37 10.63-7.27z" fill="#ffa722"></path>
    <path d="M112.86 68.59c.01-.65 2.21-23.08-17.49-27.23c-19.04-4.02-24.03 13.82-24.03 13.82s-6.75-.83-11.7 2.93c-4.95 3.77-5.23 9.98-5.23 9.98s-7.96-.3-11.71 4.13c-3.39 4-2.26 7.61-2.26 7.61l21.97 5.57l55.53-1.49l6.37-3.86s.36-5.05-2.93-8.25c-4.54-4.4-8.52-3.21-8.52-3.21z" fill="#ffffff"></path>
    <path d="M61.29 77.3s-6.09 2.68-13.63 2.02c-4.48-.39-7.34-1.72-7.34-1.72s-.77 5.18 3.3 7.73c3.05 1.91 5.96 2.2 11.38 2.18s54.74-.12 58.29-.16c3.56-.04 6.94-.67 8.67-2.28c2.18-2.03 2.34-5.02 2.34-5.02s-3.42 1.02-8.18.4c-4.74-.62-7.5-2.74-7.5-2.74s-3.41 2.91-21.04 3.23c-19.02.35-26.29-3.64-26.29-3.64z" fill="#e2ebee"></path>
  </symbol>
  <symbol xmlns="http://www.w3.org/2000/svg" xmlns:xlink="http://www.w3.org/1999/xlink" aria-hidden="true" role="img" preserveAspectRatio="xMidYMid meet" viewBox="0 0 128 128" id="sun-svgrepo-com">
    <path d="M37.41 41.95c-9.71 12.48-9.54 34.65 2.87 45.64c14.09 12.47 33.92 12.34 46.39.87c14.95-13.76 14.09-36.66.87-49.63c-13.29-13.04-37.04-13.72-50.13 3.12z" fill="#fcc11a"></path>
    <path d="M53 37.67c-3.84-1.7-8.04 2.93-9.87 6.09c-1.83 3.17-3.53 9.38.37 10.97c3.9 1.58 6.7-1.1 9.51-5.73c2.79-4.63 4.38-9.38-.01-11.33z" fill="#fee269"></path>
    <path d="M63 20.27c-.93 1.74-.62 3.08 1.23 3.52c1.85.44 13.36 2.31 14.33 2.37c1.41.09 1.93-.97 1.76-2.2c-.18-1.23-2.99-18.46-3.25-20.04S75.14.76 73.55 2.87S63.7 18.96 63 20.27z" fill="#ffa722"></path>
    <path d="M92.8 32.23c-1.81.56-1.76 1.67-.79 3.08c.97 1.41 7.65 11.6 8.26 12.31c.62.7 1.67.88 2.55-.18c.88-1.05 11.86-16.45 12.66-17.41c1.32-1.58.53-3.25-1.49-2.73c-1.54.41-20.05 4.58-21.19 4.93z" fill="#ffa722"></path>
    <path d="M106.6 61.86c-1.3-.74-2.99-.53-3.43 1.14c-.44 1.67-2.37 13.8-2.55 14.86s.62 2.11 1.93 1.85s19.45-2.95 20.66-3.25c2.11-.53 2.81-2.64.62-4.22c-1.42-1.03-16-9.68-17.23-10.38z" fill="#ffa722"></path>
    <path d="M92.09 90.6c1.4-.75 2.64-.18 2.99 1.41c.35 1.58 4.22 17.76 4.84 20.75c.31 1.5-1.41 2.73-2.81 1.85c-1.41-.88-16.69-11.53-17.67-12.4c-1.41-1.23-.43-2.51.26-3.16c1.4-1.33 11.07-7.74 12.39-8.45z" fill="#ffa722"></path>
    <path d="M49.54 99.48c-1.77-.17-2.29 1.41-2.02 2.81c.26 1.41 2.9 19.24 3.08 20.57c.26 1.93 2.29 2.73 3.6.79s10.35-16.4 11.08-17.76c1.32-2.46.35-2.99-.97-3.6c-1.31-.61-12.92-2.63-14.77-2.81z" fill="#ffa722"></path>
    <path d="M24.23 79c1.23-2.02 2.81-1.49 3.96.44c.78 1.32 7.38 10.2 8 11.16c.62.97.88 2.81-1.05 3.25c-1.95.45-17.68 4.58-20.14 5.02c-2.46.44-3.87-1.49-2.29-3.6c.92-1.24 10.82-15.12 11.52-16.27z" fill="#ffa722"></path>
    <path d="M20.89 63.7c2.25 1 3.31.64 3.78-.97c.62-2.11 2.46-11.78 2.55-13.98c.06-1.43-.53-2.81-2.73-2.46S6.47 48.85 4.45 49.55c-2.35.82-2.18 3.4-.62 4.22c1.85.97 15.47 9.23 17.06 9.93z" fill="#ffa722"></path>
    <path d="M48.23 26.78c1.27-1.01.88-2.46-.26-3.25c-1.14-.79-15.26-11-17.05-12.4c-1.58-1.23-3.52-.79-2.99 2.02c.38 2.02 4.88 19.7 5.19 20.92c.35 1.41 1.41 2.11 2.64 1.23c1.21-.87 11.15-7.46 12.47-8.52z" fill="#ffa722"></path>
  </symbol>
  <!-- ! -->
  <symbol fill="none" xmlns="http://www.w3.org/2000/svg" viewBox="0 0 15 15" id="direction">

    <path d="M0.696974 0.0404421C0.509053 -0.0400956 0.291031 0.00189163 0.146461 0.146461C0.00189163 0.291031 -0.0400956 0.509053 0.0404421 0.696974L6.04044 14.697C6.12222 14.8878 6.31338 15.0082 6.52079 14.9996C6.7282 14.991 6.90871 14.8551 6.97436 14.6581L8.8953 8.8953L14.6581 6.97436C14.8551 6.90871 14.991 6.7282 14.9996 6.52079C15.0082 6.31338 14.8878 6.12222 14.697 6.04044L0.696974 0.0404421Z" fill="currentColor"></path>

  </symbol>

  <symbol fill="currentColor" version="1.1" id="temperature" xmlns="http://www.w3.org/2000/svg" xmlns:xlink="http://www.w3.org/1999/xlink" xml:space="preserve" viewBox="0 0 250.189 250.189">

    <g>

      <path d="M159.845,147.251V34.744C159.845,15.586,144.255,0,125.093,0c-19.159,0-34.746,15.586-34.746,34.744v112.506

		c-14.234,10.843-22.617,27.59-22.617,45.575c0,31.631,25.732,57.364,57.363,57.364c31.633,0,57.367-25.733,57.367-57.364

		C182.46,174.842,174.077,158.095,159.845,147.251z M125.093,235.189c-23.359,0-42.363-19.004-42.363-42.364

		c0-14.294,7.188-27.537,19.228-35.425c2.115-1.386,3.39-3.745,3.39-6.273V34.744c0-10.887,8.858-19.744,19.746-19.744

		c10.892,0,19.752,8.857,19.752,19.744v116.383c0,2.529,1.274,4.887,3.39,6.273c12.038,7.889,19.226,21.132,19.226,35.425

		C167.46,216.185,148.454,235.189,125.093,235.189z"></path>

      <path d="M132.595,169.042V69.924c0-4.142-3.357-7.5-7.5-7.5s-7.5,3.358-7.5,7.5v99.118c-10.104,3.183-17.43,12.622-17.43,23.783

		c0,13.767,11.16,24.931,24.93,24.931c13.773,0,24.932-11.164,24.932-24.931C150.026,181.663,142.7,172.223,132.595,169.042z"></path>

    </g>

  </symbol>

  <symbol fill="currentColor" id="drop-fill" xmlns="http://www.w3.org/2000/svg" viewBox="0 0 256 256">

    <path d="M174.03662,47.75049a254.574,254.574,0,0,0-41.44873-38.3042,7.99885,7.99885,0,0,0-9.17578,0,254.574,254.574,0,0,0-41.44873,38.3042C54.51074,79.3208,40,112.60352,40,144a88,88,0,0,0,176,0C216,112.60352,201.48926,79.3208,174.03662,47.75049Zm9.17578,105.646a55.85216,55.85216,0,0,1-45.76562,45.7085,8,8,0,1,1-2.6543-15.77832,39.8386,39.8386,0,0,0,32.64453-32.604,8.00019,8.00019,0,0,1,15.77539,2.67382Z"></path>

  </symbol>

  <symbol fill="currentColor" xmlns="http://www.w3.org/2000/svg" id="rain-alt" viewBox="0 0 24 24">

    <path d="M21,9a4,4,0,0,1-4,4H6A3,3,0,1,1,7.08,7.21a5,5,0,0,1,9-2.09A4.08,4.08,0,0,1,17,5,4,4,0,0,1,21,9ZM16.89,21.45l2-4a1,1,0,1,0-1.78-.9l-2,4a1,1,0,0,0,.44,1.34A.93.93,0,0,0,16,22,1,1,0,0,0,16.89,21.45Zm-8,0,2-4a1,1,0,1,0-1.78-.9l-2,4a1,1,0,0,0,.44,1.34A.93.93,0,0,0,8,22,1,1,0,0,0,8.89,21.45Zm5-2,1-2a1,1,0,1,0-1.78-.9l-1,2a1,1,0,0,0,.44,1.34A.93.93,0,0,0,13,20,1,1,0,0,0,13.89,19.45Zm-8,0,1-2a1,1,0,0,0-1.78-.9l-1,2a1,1,0,0,0,.44,1.34A.93.93,0,0,0,5,20,1,1,0,0,0,5.89,19.45Z"></path>

  </symbol>
</svg>